<?xml version="1.0" standalone="no"?>
<!DOCTYPE svg PUBLIC "-//W3C//DTD SVG 1.1//EN" "http://www.w3.org/Graphics/SVG/1.1/DTD/svg11.dtd" >
<svg xmlns="http://www.w3.org/2000/svg" xmlns:xlink="http://www.w3.org/1999/xlink" version="1.1">
<metadata>
Created by FontForge 20170731 at Mon Jun 21 08:39:04 2021
 By Aleksey,,,
Copyright (c) 2017 by Alexander Slobzheninov. All rights reserved.
</metadata>
<defs>
<font id="FivoSans-Heavy" horiz-adv-x="1228" >
  <font-face 
    font-family="Fivo Sans Heavy"
    font-weight="900"
    font-stretch="normal"
    units-per-em="2048"
    panose-1="0 0 0 0 0 0 0 0 0 0"
    ascent="1638"
    descent="-410"
    x-height="1024"
    cap-height="1434"
    bbox="-164 -516 2642 1966"
    underline-thickness="102"
    underline-position="-358"
    unicode-range="U+000D-E133"
  />
<missing-glyph horiz-adv-x="409" 
 />
    <glyph glyph-name=".notdef" horiz-adv-x="409" 
 />
    <glyph glyph-name=".null" horiz-adv-x="0" 
 />
    <glyph glyph-name="nonmarkingreturn" horiz-adv-x="682" 
 />
    <glyph glyph-name="NULL" horiz-adv-x="1515" 
d="M123 1434h1270v-1434h-1270v1434zM471 1126v-819h573v819h-573z" />
    <glyph glyph-name="NULL" horiz-adv-x="1515" 
d="M123 1434h1270v-1434h-1270v1434zM471 1126v-819h573v819h-573z" />
    <glyph glyph-name="CR" unicode="&#xd;" horiz-adv-x="512" 
 />
    <glyph glyph-name="space" unicode=" " horiz-adv-x="614" 
 />
    <glyph glyph-name="exclam" unicode="!" horiz-adv-x="614" 
d="M307 369q107 0 156 -46t49 -149q0 -101 -49 -147.5t-156 -46.5q-108 0 -156.5 46t-48.5 148q0 103 49 149t156 46zM113 1434h389v-390l-82 -512h-225l-82 512v390z" />
    <glyph glyph-name="quotedbl" unicode="&#x22;" horiz-adv-x="901" 
d="M389 1434v-287l-41 -492h-246l-41 492v287h328zM840 1434v-287l-41 -492h-246l-41 492v287h328z" />
    <glyph glyph-name="numbersign" unicode="#" horiz-adv-x="1454" 
d="M61 348v246h289l27 184h-254v246h289l59 410h266l-59 -410h184l60 410h266l-60 -410h265v-246h-299l-27 -184h264v-246h-299l-49 -348h-266l49 348h-184l-50 -348h-266l49 348h-254zM801 594l26 184h-184l-27 -184h185z" />
    <glyph glyph-name="dollar" unicode="$" horiz-adv-x="1351" 
d="M676 1208q-107 0 -156 -34t-49 -109q0 -35 28 -62t75.5 -44.5t109 -33.5t129.5 -34t135.5 -40.5t129 -58.5t109 -82.5t75.5 -117.5t28 -160q0 -219 -112.5 -330.5t-358.5 -134.5v-170h-287v170q-246 22 -358.5 128.5t-112.5 316.5h369q0 -97 58.5 -141t187.5 -44
q118 0 171.5 34.5t53.5 109.5q0 46 -28 80.5t-75.5 57t-109 41t-129.5 36.5t-135.5 39t-129 53t-109 74t-75.5 107t-28 147q0 217 108 328t342 134v170h287v-170q235 -23 343 -130t108 -314h-369q0 97 -53.5 140.5t-171.5 43.5z" />
    <glyph glyph-name="percent" unicode="%" horiz-adv-x="1843" 
d="M410 1454q193 0 280.5 -97.5t87.5 -312.5t-87 -312t-281 -97t-281.5 97t-87.5 312t87.5 312.5t281.5 97.5zM410 840q54 0 78 48.5t24 155.5q0 108 -24 156.5t-78 48.5t-78.5 -49t-24.5 -156t24.5 -155.5t78.5 -48.5zM635 -61h-328l901 1556h328zM1434 799
q193 0 280.5 -97.5t87.5 -312.5t-87 -312t-281 -97t-281.5 97t-87.5 312t87.5 312.5t281.5 97.5zM1434 184q54 0 78 48.5t24 156.5t-24 156.5t-78 48.5t-78.5 -49t-24.5 -156t24.5 -156t78.5 -49z" />
    <glyph glyph-name="ampersand" unicode="&#x26;" horiz-adv-x="1636" 
d="M61 369q0 76 24 142.5t69 119.5t97 93.5t120 78.5q-129 158 -129 280q0 204 112 297t359 93q236 0 343 -78t107 -250q0 -52 -18 -99.5t-45.5 -84t-72 -73t-85 -62.5t-96.5 -58l237 -231q24 81 39 180h287q-24 -237 -100 -395l327 -322h-469l-73 74q-178 -115 -480 -115
q-290 0 -421.5 97.5t-131.5 312.5zM885 279l-326 325q-115 -87 -115 -192q0 -97 49 -141t156 -44q142 0 236 52zM666 950v-2q93 47 140.5 88.5t47.5 91.5q0 65 -34 94t-109 29t-109.5 -29.5t-34.5 -93.5q0 -72 99 -178z" />
    <glyph glyph-name="quotesingle" unicode="'" horiz-adv-x="409" 
d="M369 1434v-287l-41 -492h-246l-41 492v287h328z" />
    <glyph glyph-name="parenleft" unicode="(" horiz-adv-x="614" 
d="M328 -410q-25 42 -35 58.5t-44 82t-53 113.5t-48.5 133.5t-45.5 163t-28.5 182t-12.5 209.5q0 83 6.5 161.5t20.5 148t28 128.5t36.5 116.5t38.5 97t41 86t37 67.5t34 57t25 40h286q-26 -44 -33.5 -56.5t-40.5 -75.5t-49 -106t-43.5 -125t-41.5 -156t-25.5 -176
t-11.5 -207q0 -145 20.5 -285.5t47.5 -237.5t65.5 -191.5t62 -139t49.5 -88.5h-286z" />
    <glyph glyph-name="parenright" unicode=")" horiz-adv-x="614" 
d="M287 -410h-287q27 44 50 88.5t62 139t66 191.5t47.5 237.5t20.5 285.5q0 105 -11.5 207.5t-25.5 176t-42 156t-43.5 124t-49 106t-40.5 75.5t-34 57h287q2 -3 24.5 -39.5t34 -57t37 -67.5t41 -86.5t38 -97.5t36.5 -116.5t28 -128t20.5 -148t6.5 -161.5q0 -145 -23.5 -287
t-50.5 -234t-73.5 -195t-65.5 -136t-53 -90z" />
    <glyph glyph-name="asterisk" unicode="*" horiz-adv-x="696" 
d="M467 1288l106 62l82 -142l-106 -61l-74 -21l72 -22l108 -62l-82 -141l-106 62l-55 53l18 -74v-123h-164v123l19 74l-56 -53l-106 -62l-82 141l106 62l74 22l-74 21l-106 61l82 142l106 -62l56 -53l-19 76v123h164v-123l-18 -76z" />
    <glyph glyph-name="plus" unicode="+" horiz-adv-x="1187" 
d="M1126 655v-266h-389v-389h-286v389h-390v266h390v369h286v-369h389z" />
    <glyph glyph-name="comma" unicode="," horiz-adv-x="491" 
d="M225 369q118 0 172 -73.5t54 -234.5q0 -236 -93 -343t-297 -107v164q86 0 125 49t39 156q-97 0 -140.5 45.5t-43.5 148.5q0 102 44 148.5t140 46.5z" />
    <glyph glyph-name="hyphen" unicode="-" horiz-adv-x="798" 
d="M737 410h-676v266h676v-266z" />
    <glyph glyph-name="period" unicode="." horiz-adv-x="491" 
d="M246 369q107 0 156 -47t49 -148t-49 -147.5t-156 -46.5q-108 0 -156.5 46t-48.5 148q0 101 49 148t156 47z" />
    <glyph glyph-name="slash" unicode="/" horiz-adv-x="819" 
d="M492 1434h327l-491 -1434h-328z" />
    <glyph glyph-name="zero" unicode="0" horiz-adv-x="1474" 
d="M737 1475q355 0 515.5 -180t160.5 -578t-160.5 -578t-515.5 -180t-515.5 180t-160.5 578q0 399 160.5 578.5t515.5 179.5zM737 225q151 0 219 117t68 375t-68 374.5t-219 116.5t-218.5 -116.5t-67.5 -374.5t67.5 -375t218.5 -117z" />
    <glyph glyph-name="one" unicode="1" horiz-adv-x="757" 
d="M20 1167v267h615v-1434h-369v1167h-246z" />
    <glyph glyph-name="two" unicode="2" horiz-adv-x="1208" 
d="M573 266h553v-266h-1065v225q91 83 200.5 174.5t178 147t139.5 120.5t110 113.5t64 106t25 117.5q0 107 -39 155.5t-125 48.5t-124.5 -58t-38.5 -187h-369q0 269 126 390.5t406 121.5t406.5 -112t126.5 -359q0 -44 -6.5 -83.5t-24.5 -80t-34.5 -72t-53.5 -74.5
t-62.5 -71.5t-80.5 -79.5t-89.5 -81.5t-107 -94t-115.5 -101.5z" />
    <glyph glyph-name="three" unicode="3" horiz-adv-x="1310" 
d="M635 614h-103v246h103q118 0 171.5 39t53.5 125q0 97 -49 140.5t-156 43.5t-155.5 -53.5t-48.5 -171.5h-328q0 258 126 375t406 117t406.5 -102.5t126.5 -328.5q0 -74 -21 -131t-51 -85t-60.5 -45.5t-51.5 -20.5l-21 -4q11 -2 29 -6.5t63.5 -27t81 -55t64 -96
t28.5 -143.5q0 -247 -141 -359t-453 -112t-453 121.5t-141 390.5h349q0 -129 58 -187.5t187 -58.5q118 0 172 49t54 156q0 97 -58.5 140.5t-187.5 43.5z" />
    <glyph glyph-name="four" unicode="4" horiz-adv-x="1290" 
d="M696 1434h410v-840h143v-266h-143v-328h-369v328h-696v307zM362 594h375v463z" />
    <glyph glyph-name="five" unicode="5" horiz-adv-x="1269" 
d="M512 1167l-39 -221q90 37 223 37q268 0 390 -121.5t122 -390.5t-146 -390.5t-468 -121.5q-262 0 -389 107.5t-144 343.5h328q17 -97 70.5 -141t154.5 -44q119 0 172.5 58.5t53.5 187.5t-53.5 187.5t-172.5 58.5q-92 0 -139.5 -29t-64.5 -94h-308l144 840h860v-267h-594z
" />
    <glyph glyph-name="six" unicode="6" horiz-adv-x="1290" 
d="M61 696q0 409 141 594t453 185q236 0 363 -97.5t170 -312.5h-348q-22 86 -66 125t-119 39q-118 0 -171.5 -87.5t-53.5 -281.5q2 5 6.5 13.5t26.5 29.5t54 37t95 29.5t142 13.5q239 0 357 -122.5t118 -383.5q0 -273 -136.5 -395.5t-437.5 -122.5q-312 0 -453 175t-141 562
zM655 717q-107 0 -155.5 -58.5t-48.5 -187.5t48.5 -187.5t155.5 -58.5t156 58.5t49 187.5t-49 187.5t-156 58.5z" />
    <glyph glyph-name="seven" unicode="7" horiz-adv-x="1167" 
d="M1106 1434v-226l-614 -1208h-390l615 1167h-656v267h1045z" />
    <glyph glyph-name="eight" unicode="8" horiz-adv-x="1351" 
d="M1229 1044q0 -201 -144 -288q205 -92 205 -346q0 -236 -146 -343.5t-468 -107.5t-468.5 107.5t-146.5 343.5q0 254 205 346q-143 86 -143 288q0 226 131.5 328.5t421.5 102.5t421.5 -102.5t131.5 -328.5zM676 225q128 0 187 47.5t59 147.5q0 104 -58 149t-188 45
t-188 -45t-58 -149q0 -100 59 -147.5t187 -47.5zM676 1208q-107 0 -156 -42t-49 -132q0 -93 48.5 -133.5t156.5 -40.5t156.5 40.5t48.5 133.5q0 90 -49 132t-156 42z" />
    <glyph glyph-name="nine" unicode="9" horiz-adv-x="1290" 
d="M1229 737q0 -409 -141 -593.5t-453 -184.5q-236 0 -363 97.5t-170 312.5h349q22 -86 65.5 -125t118.5 -39q118 0 171.5 87t53.5 281q-2 -5 -6 -13t-26.5 -29t-54.5 -37.5t-94.5 -29.5t-141.5 -13q-240 0 -358 123.5t-118 388.5q0 268 136.5 390t437.5 122
q312 0 453 -175.5t141 -562.5zM635 717q107 0 156 58.5t49 187.5t-49 187t-156 58t-156 -58t-49 -187t49 -187.5t156 -58.5z" />
    <glyph glyph-name="colon" unicode=":" horiz-adv-x="614" 
d="M307 371q107 0 156 -47t49 -148t-49 -147.5t-156 -46.5q-108 0 -156.5 46t-48.5 148q0 101 49 148t156 47zM307 1024q107 0 156 -47t49 -148t-49 -147.5t-156 -46.5q-108 0 -156.5 46t-48.5 148q0 101 49 148t156 47z" />
    <glyph glyph-name="semicolon" unicode=";" horiz-adv-x="491" 
d="M246 1024q107 0 156 -47t49 -148t-49 -147.5t-156 -46.5q-108 0 -156.5 46t-48.5 148q0 101 49 148t156 47zM225 369q118 0 172 -73.5t54 -234.5q0 -236 -93 -343t-297 -107v164q86 0 125 49t39 156q-97 0 -140.5 45.5t-43.5 148.5q0 102 44 148.5t140 46.5z" />
    <glyph glyph-name="less" unicode="&#x3c;" horiz-adv-x="901" 
d="M41 696l819 328v-328l-461 -184l461 -184v-328l-819 328v368z" />
    <glyph glyph-name="equal" unicode="=" horiz-adv-x="1310" 
d="M1270 471v-266h-1229v266h1229zM1270 881v-267h-1229v267h1229z" />
    <glyph glyph-name="greater" unicode="&#x3e;" horiz-adv-x="901" 
d="M860 696v-368l-819 -328v328l461 184l-461 184v328z" />
    <glyph glyph-name="question" unicode="?" horiz-adv-x="1146" 
d="M543 369q107 0 156 -46t49 -149q0 -101 -49 -147.5t-156 -46.5q-108 0 -156.5 46t-48.5 148q0 103 49 149t156 46zM389 532q0 87 18 153.5t47 105.5t64 68t70 50t64 42.5t47 55t18 78.5q0 65 -39 94t-125 29t-125 -48.5t-39 -155.5h-348q0 248 126 359.5t406 111.5
t406.5 -93t126.5 -297q0 -75 -22.5 -131.5t-59 -90t-80 -60t-87 -50t-80 -50.5t-59 -70t-22.5 -101h-307z" />
    <glyph glyph-name="at" unicode="@" horiz-adv-x="1863" 
d="M1098 858l49 84h205v-553q0 -75 19.5 -109t62.5 -34q54 0 78 63t24 203q0 323 -141 468.5t-453 145.5q-322 0 -468 -146t-146 -468q0 -312 121.5 -453t390.5 -141q93 0 171 23t110 43t46 36v-245q-21 -24 -113 -53t-214 -29q-409 0 -594 194t-185 625q0 441 209.5 640.5
t671.5 199.5q452 0 656 -199.5t204 -640.5q0 -244 -91 -357.5t-277 -113.5q-233 0 -316 125q-93 -84 -280 -84q-203 0 -295 102t-92 328q0 236 92.5 343.5t296.5 107.5q150 0 258 -105zM901 287q86 0 125 53.5t39 171.5t-39 171.5t-125 53.5t-125 -53.5t-39 -171.5
t39 -171.5t125 -53.5z" />
    <glyph glyph-name="A" unicode="A" horiz-adv-x="1433" 
d="M1434 0h-433l-69 266h-449l-73 -266h-410l451 1434h573zM715 1092l-158 -560h305z" />
    <glyph glyph-name="B" unicode="B" horiz-adv-x="1413" 
d="M1126 758q9 -3 24.5 -10t54.5 -34.5t68.5 -61.5t54 -93.5t24.5 -128.5q0 -225 -137 -327.5t-437 -102.5h-655v1434h635q279 0 405.5 -93t126.5 -297q0 -63 -17 -115.5t-41 -82.5t-48 -51.5t-41 -28.5zM717 266q107 0 156 39t49 125q0 97 -49 140.5t-156 43.5h-185v-348
h185zM532 1167v-307h164q86 0 125 39t39 125q0 75 -39 109t-125 34h-164z" />
    <glyph glyph-name="C" unicode="C" horiz-adv-x="1576" 
d="M1106 492h410q-60 -280 -225.5 -406.5t-471.5 -126.5q-397 0 -577.5 180.5t-180.5 577.5t180.5 577.5t577.5 180.5q326 0 491.5 -126.5t205.5 -406.5h-410q-23 118 -91 171.5t-196 53.5q-172 0 -249.5 -107t-77.5 -343t77.5 -343.5t249.5 -107.5q127 0 195.5 53.5
t91.5 172.5z" />
    <glyph glyph-name="D" unicode="D" horiz-adv-x="1515" 
d="M1454 717q0 -376 -175 -546.5t-562 -170.5h-594v1434h594q387 0 562 -170.5t175 -546.5zM696 1147h-164v-860h164q172 0 250 102t78 328t-78 328t-250 102z" />
    <glyph glyph-name="E" unicode="E" 
d="M1188 1147h-656v-266h574v-287h-574v-307h656v-287h-1065v1434h1065v-287z" />
    <glyph glyph-name="F" unicode="F" horiz-adv-x="1208" 
d="M1188 1147h-656v-266h574v-287h-574v-594h-409v1434h1065v-287z" />
    <glyph glyph-name="G" unicode="G" horiz-adv-x="1597" 
d="M819 573v267h717v-123q0 -398 -170.5 -578t-546.5 -180q-397 0 -577.5 180.5t-180.5 577.5t180.5 577.5t577.5 180.5q313 0 478.5 -117t218.5 -375h-390q-25 97 -97.5 140.5t-209.5 43.5q-172 0 -249.5 -107t-77.5 -343t77.5 -343.5t249.5 -107.5t250 73t78 234h-328z
" />
    <glyph glyph-name="H" unicode="H" horiz-adv-x="1515" 
d="M983 1434h410v-1434h-410v614h-451v-614h-409v1434h409v-512h451v512z" />
    <glyph glyph-name="I" unicode="I" horiz-adv-x="655" 
d="M123 1434h409v-1434h-409v1434z" />
    <glyph glyph-name="J" unicode="J" horiz-adv-x="1167" 
d="M0 430v82h389v-82q0 -86 29 -125t94 -39t94 39t29 125v1004h409v-1004q0 -239 -127.5 -355t-404.5 -116q-266 0 -389 116t-123 355z" />
    <glyph glyph-name="K" unicode="K" horiz-adv-x="1495" 
d="M532 1434v-523l431 523h491l-573 -697l614 -737h-491l-472 565v-565h-409v1434h409z" />
    <glyph glyph-name="L" unicode="L" horiz-adv-x="1167" 
d="M1106 307v-307h-983v1434h409v-1127h574z" />
    <glyph glyph-name="M" unicode="M" horiz-adv-x="1884" 
d="M512 936v-936h-389v1434h553l276 -881l277 881h532v-1434h-389v936l-307 -936h-246z" />
    <glyph glyph-name="N" unicode="N" horiz-adv-x="1556" 
d="M1044 1434h390v-1434h-471l-451 922v-922h-389v1434h471l450 -922v922z" />
    <glyph glyph-name="O" unicode="O" horiz-adv-x="1638" 
d="M819 1475q397 0 577.5 -180.5t180.5 -577.5t-180.5 -577.5t-577.5 -180.5t-577.5 180.5t-180.5 577.5t180.5 577.5t577.5 180.5zM819 266q172 0 250 107.5t78 343.5t-78 343t-250 107t-249.5 -107t-77.5 -343t77.5 -343.5t249.5 -107.5z" />
    <glyph glyph-name="P" unicode="P" horiz-adv-x="1392" 
d="M1352 963q0 -76 -20 -143.5t-64.5 -128t-110 -104.5t-162.5 -69.5t-217 -25.5h-246v-492h-409v1434h655q120 0 217 -25.5t162.5 -69.5t110 -104.5t64.5 -128t20 -143.5zM942 963q0 80 -47.5 132t-136.5 52h-226v-369h226q89 0 136.5 52t47.5 133z" />
    <glyph glyph-name="Q" unicode="Q" horiz-adv-x="1638" 
d="M61 717q0 397 180.5 577.5t577.5 180.5t577.5 -180.5t180.5 -577.5q0 -426 -209 -606l209 -254h-369l-106 131q-119 -29 -283 -29q-397 0 -577.5 180.5t-180.5 577.5zM819 1167q-172 0 -249.5 -107t-77.5 -343t77.5 -343.5t249.5 -107.5t250 107.5t78 343.5t-78 343
t-250 107z" />
    <glyph glyph-name="R" unicode="R" horiz-adv-x="1474" 
d="M700 512h-168v-512h-409v1434h676q120 0 217 -25.5t162.5 -69.5t109.5 -104.5t64 -128t20 -143.5q0 -311 -282 -410l323 -553h-430zM532 778h246q89 0 137 52.5t48 132.5t-48 132t-137 52h-246v-369z" />
    <glyph glyph-name="S" unicode="S" horiz-adv-x="1351" 
d="M471 1065q0 -36 28 -62.5t75.5 -45t109 -34t129.5 -34t135.5 -41t129 -58.5t109 -82.5t75.5 -117.5t28 -160q0 -247 -145.5 -359t-468.5 -112q-322 0 -468.5 107.5t-146.5 343.5h369q0 -97 58.5 -141t187.5 -44q118 0 171.5 34.5t53.5 109.5q0 46 -28 80.5t-75.5 57
t-109 41t-129.5 36.5t-135.5 39t-129 53t-109 74t-75.5 107t-28 147q0 247 141 359t453 112t453 -107.5t141 -343.5h-369q0 97 -53.5 140.5t-171.5 43.5q-107 0 -156 -34t-49 -109z" />
    <glyph glyph-name="T" unicode="T" horiz-adv-x="1310" 
d="M1270 1434v-308h-410v-1126h-409v1126h-410v308h1229z" />
    <glyph glyph-name="U" unicode="U" horiz-adv-x="1515" 
d="M123 532v902h409v-902q0 -139 53.5 -202.5t172.5 -63.5q118 0 171.5 63t53.5 203v902h410v-902q0 -301 -151 -437t-484 -136t-484 136t-151 437z" />
    <glyph glyph-name="V" unicode="V" horiz-adv-x="1413" 
d="M410 0l-410 1434h410l297 -1151l297 1151h409l-409 -1434h-594z" />
    <glyph glyph-name="W" unicode="W" horiz-adv-x="2088" 
d="M801 1434h487l170 -1014l201 1014h409l-327 -1434h-533l-178 997l-149 -997h-533l-328 1434h410l201 -1014z" />
    <glyph glyph-name="X" unicode="X" horiz-adv-x="1433" 
d="M471 1434l250 -447l262 447h430l-430 -697l451 -737h-451l-270 485l-283 -485h-430l430 737l-410 697h451z" />
    <glyph glyph-name="Y" unicode="Y" horiz-adv-x="1392" 
d="M901 532v-532h-389v532l-512 902h451l256 -512l256 512h430z" />
    <glyph glyph-name="Z" unicode="Z" horiz-adv-x="1310" 
d="M532 287h717v-287h-1188v246l697 901h-676v287h1147v-246z" />
    <glyph glyph-name="bracketleft" unicode="[" horiz-adv-x="655" 
d="M655 1434v-267h-225v-1310h225v-267h-532v1844h532z" />
    <glyph glyph-name="backslash" unicode="\" horiz-adv-x="819" 
d="M328 1434l491 -1434h-327l-492 1434h328z" />
    <glyph glyph-name="bracketright" unicode="]" horiz-adv-x="655" 
d="M0 1434h532v-1844h-532v267h225v1310h-225v267z" />
    <glyph glyph-name="asciicircum" unicode="^" horiz-adv-x="1024" 
d="M696 1372l287 -717h-287l-184 461l-184 -461h-287l287 717h368z" />
    <glyph glyph-name="underscore" unicode="_" horiz-adv-x="1064" 
d="M1065 0v-266h-1065v266h1065z" />
    <glyph glyph-name="grave" unicode="`" horiz-adv-x="634" 
d="M410 1434l184 -308h-287l-266 308h369z" />
    <glyph glyph-name="a" unicode="a" horiz-adv-x="1146" 
d="M41 307q0 183 121.5 265.5t390.5 82.5h143v41q0 75 -32 109.5t-101 34.5q-70 0 -101.5 -29t-31.5 -94h-348q0 172 116.5 249.5t374.5 77.5t375 -92.5t117 -296.5v-655h-287l-43 74q-97 -94 -305 -94q-204 0 -296.5 77.5t-92.5 249.5zM696 451h-102q-99 0 -141.5 -27
t-42.5 -96q0 -57 28 -80t94 -23q86 0 125 44t39 141v41z" />
    <glyph glyph-name="b" unicode="b" horiz-adv-x="1247" 
d="M756 -20l2 -3q-116 0 -192.5 24t-129.5 77l-47 -78h-287v1434h369v-465q102 75 285 75q236 0 343 -126t107 -406t-107 -406t-343 -126zM657 242q97 0 141 63.5t44 202.5t-44 202.5t-141 63.5t-140.5 -63t-43.5 -203t43.5 -203t140.5 -63z" />
    <glyph glyph-name="c" unicode="c" horiz-adv-x="1187" 
d="M778 389h369q-22 -215 -148.5 -312t-384.5 -97q-301 0 -437 126t-136 406t136 406t437 126q258 0 384.5 -97t148.5 -312h-369q-12 75 -51 109t-113 34q-107 0 -155.5 -63t-48.5 -203t48.5 -203t155.5 -63q72 0 111.5 34t52.5 109z" />
    <glyph glyph-name="d" unicode="d" horiz-adv-x="1247" 
d="M500 -20l2 2q-236 0 -343.5 126.5t-107.5 405.5q0 280 107.5 406.5t343.5 126.5q181 0 284 -76v465h369v-1434h-287l-47 78q-53 -53 -128.5 -76.5t-192.5 -23.5zM602 246q97 0 140.5 63t43.5 203t-43.5 203t-140.5 63t-140.5 -63t-43.5 -203t43.5 -203t140.5 -63z" />
    <glyph glyph-name="e" unicode="e" horiz-adv-x="1187" 
d="M410 410q0 -107 43.5 -156t140.5 -49q72 0 111.5 29.5t52.5 93.5h348q-32 -183 -154 -265.5t-358 -82.5q-290 0 -421.5 126t-131.5 406t131.5 406t421.5 126t421.5 -126t131.5 -406v-102h-737zM594 819q-97 0 -140.5 -49t-43.5 -156h368q0 107 -43.5 156t-140.5 49z" />
    <glyph glyph-name="f" unicode="f" horiz-adv-x="860" 
d="M614 1167q-61 0 -61 -61v-82h287v-225h-287v-799h-369v799h-164v225h164v82q0 154 87 241t241 87h328v-267h-226z" />
    <glyph glyph-name="g" unicode="g" horiz-adv-x="1247" 
d="M489 1044v3q212 0 322 -101l47 78h287v-920q0 -280 -131.5 -407t-421.5 -127q-241 0 -362.5 82.5t-149.5 265.5h348q12 -65 46 -94t97 -29q107 0 156 59t49 187v14q-103 -75 -284 -75q-236 0 -343.5 126.5t-107.5 405.5q0 280 106 406t342 126zM592 780
q-97 0 -140.5 -62.5t-43.5 -201.5q0 -140 43.5 -204t140.5 -64t140.5 64t43.5 204q0 139 -43.5 201.5t-140.5 62.5z" />
    <glyph glyph-name="h" unicode="h" horiz-adv-x="1208" 
d="M102 0v1434h369v-447q89 57 246 57q215 0 312 -116.5t97 -374.5v-553h-368v553q0 118 -34.5 171.5t-109.5 53.5t-109 -53.5t-34 -171.5v-553h-369z" />
    <glyph glyph-name="i" unicode="i" horiz-adv-x="614" 
d="M492 0h-369v1024h369v-1024zM307 1495q107 0 156 -43.5t49 -140.5t-49 -141t-156 -44t-156 44t-49 141t49 140.5t156 43.5z" />
    <glyph glyph-name="j" unicode="j" horiz-adv-x="593" 
d="M20 -102q46 0 74.5 28t28.5 74v1024h369v-1065q0 -154 -87 -241t-241 -87h-328v267h184zM307 1495q107 0 156 -43.5t49 -140.5t-49 -141t-156 -44t-156 44t-49 141t49 140.5t156 43.5z" />
    <glyph glyph-name="k" unicode="k" horiz-adv-x="1249" 
d="M471 412v-412h-369v1434h369v-779l307 369h430l-409 -492l450 -532h-430z" />
    <glyph glyph-name="l" unicode="l" horiz-adv-x="573" 
d="M471 1434v-1434h-369v1434h369z" />
    <glyph glyph-name="m" unicode="m" horiz-adv-x="1781" 
d="M471 553v-553h-369v1024h287l57 -102q83 122 271 122q203 0 289 -129q92 129 305 129q204 0 296.5 -116.5t92.5 -374.5v-553h-369v553q0 118 -29 171.5t-94 53.5t-94 -53.5t-29 -171.5v-553h-368v553q0 118 -29 171.5t-94 53.5t-94 -53.5t-29 -171.5z" />
    <glyph glyph-name="n" unicode="n" horiz-adv-x="1208" 
d="M389 1024l41 -70q97 90 287 90q215 0 312 -116.5t97 -374.5v-553h-368v553q0 118 -34.5 171.5t-109.5 53.5t-109 -53.5t-34 -171.5v-553h-369v1024h287z" />
    <glyph glyph-name="o" unicode="o" 
d="M614 1044q301 0 437.5 -126.5t136.5 -405.5t-136.5 -405.5t-437.5 -126.5t-437 126t-136 406t136 406t437 126zM410 512q0 -140 48.5 -203t155.5 -63t156 63.5t49 202.5t-49 202.5t-156 63.5t-155.5 -63t-48.5 -203z" />
    <glyph glyph-name="p" unicode="p" horiz-adv-x="1247" 
d="M756 1044l-2 -2q236 0 343 -126t107 -406t-107 -406.5t-343 -126.5q-182 0 -285 76v-465h-369v1434h287l47 -78q53 53 129 76.5t193 23.5zM653 778q-97 0 -140.5 -63t-43.5 -203t43.5 -203t140.5 -63t141 63.5t44 202.5t-44 202.5t-141 63.5z" />
    <glyph glyph-name="q" unicode="q" horiz-adv-x="1247" 
d="M500 1044l-2 3q116 0 192 -24t129 -77l47 78h287v-1434h-369v465q-102 -75 -284 -75q-236 0 -343.5 126.5t-107.5 405.5t107.5 405.5t343.5 126.5zM598 782q-97 0 -140.5 -63t-43.5 -203t43.5 -203t140.5 -63t140.5 63t43.5 203t-43.5 203t-140.5 63z" />
    <glyph glyph-name="r" unicode="r" horiz-adv-x="858" 
d="M674 737h-2q-106 0 -154.5 -53.5t-48.5 -171.5v-512h-369v1024h287l49 -88q51 57 107.5 82.5t130.5 25.5h164v-307h-164z" />
    <glyph glyph-name="s" unicode="s" horiz-adv-x="1044" 
d="M389 756q0 -32 34 -52.5t88 -32t119.5 -22.5t131.5 -32t120 -53t88 -92.5t34 -143.5q0 -183 -120 -265.5t-384 -82.5q-241 0 -350 77.5t-109 249.5h348q0 -65 29.5 -94t93.5 -29t93.5 24.5t29.5 78.5q0 37 -33 60t-85 34.5t-115.5 22.5t-127 30.5t-115.5 50t-85 90
t-33 142.5q0 172 112 249.5t359 77.5q236 0 343.5 -73t107.5 -234h-328q0 54 -29.5 78.5t-93.5 24.5q-65 0 -94 -20t-29 -64z" />
    <glyph glyph-name="t" unicode="t" horiz-adv-x="921" 
d="M573 369q0 -46 28.5 -74.5t74.5 -28.5h184v-266h-328q-154 0 -240.5 87t-86.5 241v471h-164v225h164v266h368v-266h287v-225h-287v-430z" />
    <glyph glyph-name="u" unicode="u" horiz-adv-x="1208" 
d="M819 0l-41 70q-97 -90 -286 -90q-215 0 -312.5 116.5t-97.5 374.5v553h369v-553q0 -118 34 -171.5t109 -53.5t109 53.5t34 171.5v553h369v-1024h-287z" />
    <glyph glyph-name="v" unicode="v" horiz-adv-x="1126" 
d="M840 0h-553l-287 1024h389l182 -762l166 762h389z" />
    <glyph glyph-name="w" unicode="w" horiz-adv-x="1781" 
d="M758 0h-451l-287 1024h369l160 -717l127 717h450l111 -705l156 705h368l-286 -1024h-451l-133 750z" />
    <glyph glyph-name="x" unicode="x" horiz-adv-x="1105" 
d="M553 305l-164 -305h-389l328 532l-308 492h390l143 -264l143 264h389l-307 -492l328 -532h-389z" />
    <glyph glyph-name="y" unicode="y" horiz-adv-x="1105" 
d="M575 455l183 569h348l-348 -1004q-44 -127 -79.5 -200.5t-79.5 -117t-90.5 -57.5t-119.5 -14h-246v226h144q28 0 42.5 3t34 15.5t35 43t31.5 81.5l8 27l-438 997h348z" />
    <glyph glyph-name="z" unicode="z" horiz-adv-x="1024" 
d="M471 246h512v-246h-942v205l491 573h-471v246h902v-205z" />
    <glyph glyph-name="braceleft" unicode="{" horiz-adv-x="798" 
d="M512 -41q0 -54 24 -78t78 -24h185v-267h-267q-172 0 -249.5 78t-77.5 250v369q0 64 -34.5 93.5t-109.5 29.5v225q75 0 109.5 29.5t34.5 93.5v348q0 172 77.5 250t249.5 78h267v-267h-185q-54 0 -78 -24t-24 -78v-307q0 -180 -106 -236q106 -56 106 -235v-328z" />
    <glyph glyph-name="bar" unicode="|" horiz-adv-x="552" 
d="M123 1434h307v-1844h-307v1844z" />
    <glyph glyph-name="braceright" unicode="}" horiz-adv-x="798" 
d="M287 -41v328q0 179 106 235q-106 56 -106 236v307q0 54 -24.5 78t-78.5 24h-184v267h266q172 0 250 -78t78 -250v-348q0 -65 34 -94t109 -29v-225q-75 0 -109 -29t-34 -94v-369q0 -172 -78 -250t-250 -78h-266v267h184q54 0 78.5 24t24.5 78z" />
    <glyph glyph-name="asciitilde" unicode="~" horiz-adv-x="1351" 
d="M61 410v245q66 66 138 96t140.5 27t140 -23t141.5 -52.5t139.5 -65t138.5 -55.5t134 -29t131.5 18.5t125.5 83.5v-245q-66 -66 -138 -96t-140.5 -27t-140 23t-141.5 52.5t-139.5 65t-138.5 55.5t-134 29t-131.5 -18.5t-125.5 -83.5z" />
    <glyph glyph-name="space_" unicode="&#xa0;" horiz-adv-x="614" 
 />
    <glyph glyph-name="exclamdown" unicode="&#xa1;" horiz-adv-x="614" 
d="M512 -410h-389v390l82 512h225l82 -512v-390zM307 655q-107 0 -156 46t-49 149q0 102 48.5 148t156.5 46q107 0 156 -46.5t49 -147.5q0 -103 -49 -149t-156 -46z" />
    <glyph glyph-name="cent" unicode="&#xa2;" horiz-adv-x="1187" 
d="M778 389v-4h369q-19 -184 -112 -280t-277 -121v-193h-287v193q-224 28 -327 154.5t-103 371.5t103 371.5t327 154.5v172h287v-172q184 -25 277 -121t112 -280h-369q-12 75 -51 109t-113 34q-107 0 -155.5 -63t-48.5 -203t48.5 -203t155.5 -63q72 0 111.5 34t52.5 109z
" />
    <glyph glyph-name="sterling" unicode="&#xa3;" horiz-adv-x="1353" 
d="M1044 594h-450q-3 -120 -51.5 -193t-151.5 -114h901v-287h-1229v328q82 32 120.5 95.5t41.5 170.5h-164v266h164v164q-2 236 120 343.5t392 107.5q258 0 375 -107.5t117 -343.5h-348q0 107 -34.5 156t-109.5 49t-109 -49t-34 -156v-164h450v-266z" />
    <glyph glyph-name="currency" unicode="&#xa4;" horiz-adv-x="1310" 
d="M654 1044q158 0 272 -36l139 137l182 -184l-104 -105q84 -124 84 -346t-84 -346l104 -107l-184 -182l-137 137q-106 -32 -273 -32q-160 0 -272 34l-137 -137l-185 182l107 107q-84 124 -84 346t84 346l-105 105l185 184l137 -137q117 34 271 34zM446 512
q0 -139 49 -202.5t156 -63.5t156 63.5t49 202.5t-49 202.5t-156 63.5t-156 -63.5t-49 -202.5z" />
    <glyph glyph-name="yen" unicode="&#xa5;" horiz-adv-x="1433" 
d="M1331 205h-409v-205h-390v205h-430v246h430v81l-47 82h-383v246h244l-326 574h451l256 -512l256 512h430l-313 -574h231v-246h-364l-45 -82v-81h409v-246z" />
    <glyph glyph-name="section" unicode="&#xa7;" horiz-adv-x="1310" 
d="M512 1085q0 -36 25 -62t68 -42.5t98 -30t116 -28.5t122.5 -34t116.5 -50t98 -72.5t68 -106.5t25 -147q0 -227 -157 -315q55 -80 55 -197q0 -236 -126.5 -343.5t-406.5 -107.5q-247 0 -359 107.5t-112 343.5h308q0 -97 38.5 -140.5t124.5 -43.5t125 29t39 94
q0 42 -24.5 72.5t-66 48.5t-95.5 31.5t-113 27t-118.5 30.5t-113.5 45.5t-95.5 68t-66 103.5t-24.5 146q0 227 175 311q-72 88 -72 221q0 226 116.5 328.5t374.5 102.5q247 0 359 -107.5t112 -343.5h-307q0 97 -39 140.5t-125 43.5q-75 0 -109 -29t-34 -94zM901 471
q0 29 -17 52t-42 38.5t-68 31t-80.5 25t-95 25t-96.5 27.5q-92 -23 -92 -115q0 -36 24 -62t72 -43.5t96 -29.5t120 -29t122 -33q57 34 57 113z" />
    <glyph glyph-name="dieresis" unicode="&#xa8;" horiz-adv-x="983" 
d="M246 1536q107 0 156 -47t49 -148t-49 -147.5t-156 -46.5q-108 0 -156.5 46t-48.5 148q0 101 49 148t156 47zM737 1536q107 0 156 -47t49 -148t-49 -147.5t-156 -46.5q-108 0 -156.5 46t-48.5 148q0 101 49 148t156 47z" />
    <glyph glyph-name="copyright" unicode="&#xa9;" horiz-adv-x="1720" 
d="M860 1475q419 0 609 -180t190 -578t-190 -578t-609 -180t-609 180t-190 578t190 578t609 180zM860 184q290 0 421.5 126.5t131.5 406.5t-131.5 406t-421.5 126t-421.5 -126t-131.5 -406t131.5 -406.5t421.5 -126.5zM1004 635h286q-22 -172 -124 -250t-306 -78
q-226 0 -328 97.5t-102 312.5t102 312t328 97q204 0 306 -77.5t122 -249.5h-284q-17 65 -50.5 94t-93.5 29q-75 0 -109 -49t-34 -156t34 -156t109 -49q58 0 92.5 29t51.5 94z" />
    <glyph glyph-name="guillemotleft" unicode="&#xab;" horiz-adv-x="1167" 
d="M307 922h348l-245 -390l245 -409h-348l-266 409zM778 922h348l-245 -390l245 -409h-348l-266 409z" />
    <glyph glyph-name="logicalnot" unicode="&#xac;" horiz-adv-x="1208" 
d="M1126 676v-533h-286v267h-779v266h1065z" />
    <glyph glyph-name="registered" unicode="&#xae;" horiz-adv-x="1720" 
d="M860 1475q419 0 609 -180t190 -578t-190 -578t-609 -180t-609 180t-190 578t190 578t609 180zM860 184q290 0 421.5 126.5t131.5 406.5t-131.5 406t-421.5 126t-421.5 -126t-131.5 -406t131.5 -406.5t421.5 -126.5zM1071 614l178 -266h-245l-148 246h-98v-246h-223
l-3 737h369q172 0 250 -58t78 -187q0 -91 -38.5 -146t-119.5 -80zM758 922v-164h143q54 0 78.5 19.5t24.5 62.5t-24.5 62.5t-78.5 19.5h-143z" />
    <glyph glyph-name="macron" unicode="&#xaf;" horiz-adv-x="819" 
d="M61 1229v205h697v-205h-697z" />
    <glyph glyph-name="degree" unicode="&#xb0;" horiz-adv-x="860" 
d="M41 1065q0 204 92.5 296.5t296.5 92.5t296.5 -92.5t92.5 -296.5t-92.5 -296.5t-296.5 -92.5t-296.5 92.5t-92.5 296.5zM266 1065q0 -97 39 -140.5t125 -43.5t125 43.5t39 140.5t-39 140.5t-125 43.5t-125 -43.5t-39 -140.5z" />
    <glyph glyph-name="plusminus" unicode="&#xb1;" horiz-adv-x="1187" 
d="M61 0v266h1065v-266h-1065zM1126 840v-267h-389v-204h-286v204h-390v267h390v184h286v-184h389z" />
    <glyph glyph-name="acute" unicode="&#xb4;" horiz-adv-x="634" 
d="M41 1126l184 308h369l-266 -308h-287z" />
    <glyph glyph-name="paragraph" unicode="&#xb6;" horiz-adv-x="1556" 
d="M1352 1167v-1577h-308v1577h-245v-1577h-307v1024q-226 0 -328.5 97.5t-102.5 312.5t121.5 312.5t390.5 97.5h963v-267h-184z" />
    <glyph glyph-name="periodcentered" unicode="&#xb7;" horiz-adv-x="491" 
d="M246 717q107 0 156 -47t49 -148t-49 -147.5t-156 -46.5q-108 0 -156.5 46t-48.5 148q0 101 49 148t156 47z" />
    <glyph glyph-name="cedilla" unicode="&#xb8;" horiz-adv-x="512" 
d="M143 82h187l-43 -184q7 -2 19.5 -5.5t44.5 -18.5t56 -34t44 -53t20 -74q0 -105 -115 -165t-315 -60v143q164 0 164 82q0 30 -40 46t-104 16z" />
    <glyph glyph-name="guillemotright" unicode="&#xbb;" horiz-adv-x="1167" 
d="M41 922h348l266 -390l-266 -409h-348l246 409zM512 922h348l266 -390l-266 -409h-348l246 409z" />
    <glyph glyph-name="questiondown" unicode="&#xbf;" horiz-adv-x="1146" 
d="M758 492q0 -87 -18 -153.5t-47 -105.5t-64 -68t-70 -50t-64 -42.5t-47 -55t-18 -78.5q0 -65 39 -94t125 -29t125 48.5t39 155.5h348q0 -247 -126.5 -359t-406.5 -112q-279 0 -405.5 93t-126.5 297q0 75 22.5 131.5t59 90t80 60t87 50t80 50.5t59 70t22.5 101h307z
M604 655q-107 0 -156 46t-49 149q0 101 49 147.5t156 46.5q108 0 156.5 -46t48.5 -148q0 -103 -49 -149t-156 -46z" />
    <glyph glyph-name="Agrave" unicode="&#xc0;" horiz-adv-x="1433" 
d="M1004 0h-3l-69 266h-449l-73 -266h-410l451 1434h573l410 -1434h-430zM715 1092l-158 -560h305zM899 1536h-266l-266 246h327z" />
    <glyph glyph-name="Aacute" unicode="&#xc1;" horiz-adv-x="1433" 
d="M1004 0h-3l-69 266h-449l-73 -266h-410l451 1434h573l410 -1434h-430zM715 1092l-158 -560h305zM571 1536l185 246h348l-246 -246h-287z" />
    <glyph glyph-name="Acircumflex" unicode="&#xc2;" horiz-adv-x="1433" 
d="M1004 0h-3l-69 266h-449l-73 -266h-410l451 1434h573l410 -1434h-430zM715 1092l-158 -560h305zM1083 1536h-245l-103 102l-102 -102h-246l164 246h369z" />
    <glyph glyph-name="Atilde" unicode="&#xc3;" horiz-adv-x="1433" 
d="M1004 0h-3l-69 266h-449l-73 -266h-410l451 1434h573l410 -1434h-430zM715 1092l-158 -560h305zM389 1556q0 104 64.5 165t160.5 61q62 0 110.5 -13t71.5 -28t51 -28t54 -13q15 0 28 13t13 28h143q0 -104 -64.5 -164.5t-160.5 -60.5q-62 0 -110.5 12.5t-71.5 28t-51 28
t-54 12.5q-15 0 -28 -13t-13 -28h-143z" />
    <glyph glyph-name="Adieresis" unicode="&#xc4;" horiz-adv-x="1433" 
d="M1004 0h-3l-69 266h-449l-73 -266h-410l451 1434h573l410 -1434h-430zM715 1092l-158 -560h305zM469 1823q107 0 156 -39t49 -125t-49 -125t-156 -39t-156 39t-49 125t49 125t156 39zM1001 1823q107 0 156 -39t49 -125t-49 -125t-156 -39t-155.5 39t-48.5 125t48.5 125
t155.5 39z" />
    <glyph glyph-name="Aring" unicode="&#xc5;" horiz-adv-x="1433" 
d="M1004 0h-3l-69 266h-449l-73 -266h-410l451 1434h573l410 -1434h-430zM715 1092l-158 -560h305zM735 1946q139 0 202.5 -53.5t63.5 -172.5q0 -118 -63 -171.5t-203 -53.5t-203 53.5t-63 171.5q0 119 63.5 172.5t202.5 53.5zM735 1638q43 0 62.5 19.5t19.5 62.5
t-19.5 62.5t-62.5 19.5t-62.5 -19.5t-19.5 -62.5t19.5 -62.5t62.5 -19.5z" />
    <glyph glyph-name="AE" unicode="&#xc6;" horiz-adv-x="1945" 
d="M1905 1147h-594v-266h512v-287h-512v-307h594v-287h-963v266h-410l-122 -266h-410l696 1434h1209v-287zM942 1151l-287 -619h287v619z" />
    <glyph glyph-name="Ccedilla" unicode="&#xc7;" horiz-adv-x="1576" 
d="M655 -225l50 184q-336 25 -490 206t-154 550q0 397 180.5 577.5t577.5 180.5q326 0 491.5 -126.5t205.5 -406.5h-410q-23 118 -91 171.5t-196 53.5q-172 0 -249.5 -107t-77.5 -343t77.5 -343.5t249.5 -107.5q128 0 196 53.5t91 171.5h410q-56 -261 -204.5 -388
t-416.5 -140l-14 -63q7 -2 19.5 -5.5t44.5 -18.5t56 -34t44 -53t20 -74q0 -105 -115 -165t-315 -60v143q164 0 164 82q0 30 -40 46t-104 16z" />
    <glyph glyph-name="Egrave" unicode="&#xc8;" 
d="M1188 1147h-656v-266h574v-287h-574v-307h656v-287h-1065v1434h1065v-287zM614 1782l205 -246h-266l-266 246h327z" />
    <glyph glyph-name="Eacute" unicode="&#xc9;" 
d="M1188 1147h-656v-266h574v-287h-574v-307h656v-287h-1065v1434h1065v-287zM492 1536l184 246h348l-246 -246h-286z" />
    <glyph glyph-name="Ecircumflex" unicode="&#xca;" 
d="M1188 1147h-656v-266h574v-287h-574v-307h656v-287h-1065v1434h1065v-287zM1004 1536h-246l-103 102l-102 -102h-246l164 246h369z" />
    <glyph glyph-name="Edieresis" unicode="&#xcb;" 
d="M1188 1147h-656v-266h574v-287h-574v-307h656v-287h-1065v1434h1065v-287zM389 1823q107 0 156 -39t49 -125t-49 -125t-156 -39t-156 39t-49 125t49 125t156 39zM922 1823q107 0 155.5 -39t48.5 -125t-48.5 -125t-155.5 -39t-156 39t-49 125t49 125t156 39z" />
    <glyph glyph-name="Igrave" unicode="&#xcc;" horiz-adv-x="675" 
d="M143 1434h410v-1434h-410v1434zM307 1782l205 -246h-266l-266 246h327z" />
    <glyph glyph-name="Iacute" unicode="&#xcd;" horiz-adv-x="655" 
d="M123 1434h409v-1434h-409v1434zM164 1536l184 246h348l-245 -246h-287z" />
    <glyph glyph-name="Icircumflex" unicode="&#xce;" horiz-adv-x="696" 
d="M143 1434h410v-1434h-410v1434zM696 1536h-245l-103 102l-102 -102h-246l164 246h368z" />
    <glyph glyph-name="Idieresis" unicode="&#xcf;" horiz-adv-x="696" 
d="M143 1434h410v-1434h-410v1434zM82 1823q107 0 156 -39t49 -125t-49 -125t-156 -39t-156 39t-49 125t49 125t156 39zM614 1823q107 0 156 -39t49 -125t-49 -125t-156 -39t-155.5 39t-48.5 125t48.5 125t155.5 39z" />
    <glyph glyph-name="Ntilde" unicode="&#xd1;" horiz-adv-x="1556" 
d="M1044 1434h390v-1434h-471l-451 922v-922h-389v1434h471l450 -922v922zM430 1556q0 104 64.5 165t160.5 61q62 0 110.5 -13t71.5 -28t51 -28t54 -13q15 0 28 13t13 28h143q0 -104 -64.5 -164.5t-160.5 -60.5q-62 0 -110.5 12.5t-71.5 28t-51 28t-54 12.5q-15 0 -28 -13
t-13 -28h-143z" />
    <glyph glyph-name="Ograve" unicode="&#xd2;" horiz-adv-x="1638" 
d="M819 1475q397 0 577.5 -180.5t180.5 -577.5t-180.5 -577.5t-577.5 -180.5t-577.5 180.5t-180.5 577.5t180.5 577.5t577.5 180.5zM819 266q172 0 250 107.5t78 343.5t-78 343t-250 107t-249.5 -107t-77.5 -343t77.5 -343.5t249.5 -107.5zM780 1782l205 -246h-266l-266 246
h327z" />
    <glyph glyph-name="Oacute" unicode="&#xd3;" horiz-adv-x="1638" 
d="M819 1475q397 0 577.5 -180.5t180.5 -577.5t-180.5 -577.5t-577.5 -180.5t-577.5 180.5t-180.5 577.5t180.5 577.5t577.5 180.5zM819 266q172 0 250 107.5t78 343.5t-78 343t-250 107t-249.5 -107t-77.5 -343t77.5 -343.5t249.5 -107.5zM655 1536l185 246h348l-246 -246
h-287z" />
    <glyph glyph-name="Ocircumflex" unicode="&#xd4;" horiz-adv-x="1638" 
d="M819 1475q397 0 577.5 -180.5t180.5 -577.5t-180.5 -577.5t-577.5 -180.5t-577.5 180.5t-180.5 577.5t180.5 577.5t577.5 180.5zM819 266q172 0 250 107.5t78 343.5t-78 343t-250 107t-249.5 -107t-77.5 -343t77.5 -343.5t249.5 -107.5zM1167 1536h-245l-103 102
l-102 -102h-246l164 246h369z" />
    <glyph glyph-name="Otilde" unicode="&#xd5;" horiz-adv-x="1638" 
d="M819 1475q397 0 577.5 -180.5t180.5 -577.5t-180.5 -577.5t-577.5 -180.5t-577.5 180.5t-180.5 577.5t180.5 577.5t577.5 180.5zM819 266q172 0 250 107.5t78 343.5t-78 343t-250 107t-249.5 -107t-77.5 -343t77.5 -343.5t249.5 -107.5zM471 1556q0 104 64.5 165
t160.5 61q62 0 110.5 -13t71.5 -28t51 -28t54 -13q15 0 28 13t13 28h143q0 -104 -64.5 -164.5t-160.5 -60.5q-62 0 -110.5 12.5t-71.5 28t-51 28t-54 12.5q-15 0 -28 -13t-13 -28h-143z" />
    <glyph glyph-name="Odieresis" unicode="&#xd6;" horiz-adv-x="1638" 
d="M819 1475q397 0 577.5 -180.5t180.5 -577.5t-180.5 -577.5t-577.5 -180.5t-577.5 180.5t-180.5 577.5t180.5 577.5t577.5 180.5zM819 266q172 0 250 107.5t78 343.5t-78 343t-250 107t-249.5 -107t-77.5 -343t77.5 -343.5t249.5 -107.5zM553 1823q107 0 156 -39t49 -125
t-49 -125t-156 -39t-156 39t-49 125t49 125t156 39zM1085 1823q107 0 156 -39t49 -125t-49 -125t-156 -39t-155.5 39t-48.5 125t48.5 125t155.5 39z" />
    <glyph glyph-name="multiply" unicode="&#xd7;" horiz-adv-x="1146" 
d="M881 0l-308 307l-307 -307l-205 205l308 307l-308 307l205 205l307 -307l308 307l204 -205l-307 -307l307 -307z" />
    <glyph glyph-name="Oslash" unicode="&#xd8;" horiz-adv-x="1638" 
d="M61 717q0 397 180.5 577.5t577.5 180.5q64 0 139 -7l46 129h245l-61 -176q200 -70 294.5 -242t94.5 -462q0 -397 -180.5 -577.5t-577.5 -180.5q-75 0 -139 6l-45 -129h-246l62 176q-200 70 -295 242.5t-95 462.5zM492 717q0 -236 77.5 -343.5t249.5 -107.5t250 107.5
t78 343.5t-78 343t-250 107t-249.5 -107t-77.5 -343z" />
    <glyph glyph-name="Ugrave" unicode="&#xd9;" horiz-adv-x="1515" 
d="M123 532v902h409v-902q0 -139 53.5 -202.5t172.5 -63.5q118 0 171.5 63t53.5 203v902h410v-902q0 -301 -151 -437t-484 -136t-484 136t-151 437zM698 1782l205 -246h-266l-266 246h327z" />
    <glyph glyph-name="Uacute" unicode="&#xda;" horiz-adv-x="1515" 
d="M123 532v902h409v-902q0 -139 53.5 -202.5t172.5 -63.5q118 0 171.5 63t53.5 203v902h410v-902q0 -301 -151 -437t-484 -136t-484 136t-151 437zM594 1536l184 246h348l-245 -246h-287z" />
    <glyph glyph-name="Ucircumflex" unicode="&#xdb;" horiz-adv-x="1515" 
d="M123 532v902h409v-902q0 -139 53.5 -202.5t172.5 -63.5q118 0 171.5 63t53.5 203v902h410v-902q0 -301 -151 -437t-484 -136t-484 136t-151 437zM1106 1536h-246l-102 102l-103 -102h-245l163 246h369z" />
    <glyph glyph-name="Udieresis" unicode="&#xdc;" horiz-adv-x="1515" 
d="M123 532v902h409v-902q0 -139 53.5 -202.5t172.5 -63.5q118 0 171.5 63t53.5 203v902h410v-902q0 -301 -151 -437t-484 -136t-484 136t-151 437zM492 1823q107 0 155.5 -39t48.5 -125t-48.5 -125t-155.5 -39t-156 39t-49 125t49 125t156 39zM1024 1823q107 0 156 -39
t49 -125t-49 -125t-156 -39t-156 39t-49 125t49 125t156 39z" />
    <glyph glyph-name="Yacute" unicode="&#xdd;" horiz-adv-x="1392" 
d="M901 532v-532h-389v532l-512 902h451l256 -512l256 512h430zM553 1536l184 246h348l-245 -246h-287z" />
    <glyph glyph-name="germandbls" unicode="&#xdf;" horiz-adv-x="1392" 
d="M696 1475q299 0 436.5 -94.5t137.5 -295.5q0 -104 -43.5 -170t-141.5 -116q129 -53 187.5 -140.5t58.5 -228.5q0 -226 -107 -328t-343 -102q-55 0 -111.5 10t-85.5 20l-29 11v246q62 -21 123 -21q97 0 141 44t44 141q0 107 -63.5 155.5t-203.5 48.5v246q119 0 172.5 34
t53.5 109q0 86 -49 125t-156 39q-225 0 -225 -204v-1004h-369v963q0 512 573 512z" />
    <glyph glyph-name="agrave" unicode="&#xe0;" horiz-adv-x="1146" 
d="M41 307q0 183 121.5 265.5t390.5 82.5h143v41q0 75 -32 109.5t-101 34.5q-70 0 -101.5 -29t-31.5 -94h-348q0 172 116.5 249.5t374.5 77.5t375 -92.5t117 -296.5v-655h-287l-43 74q-97 -94 -305 -94q-204 0 -296.5 77.5t-92.5 249.5zM696 451h-102q-99 0 -141.5 -27
t-42.5 -96q0 -57 28 -80t94 -23q86 0 125 44t39 141v41zM553 1434l184 -308h-286l-267 308h369z" />
    <glyph glyph-name="aacute" unicode="&#xe1;" horiz-adv-x="1146" 
d="M430 -20q-204 0 -296.5 77.5t-92.5 249.5q0 183 121.5 265.5t390.5 82.5h143v41q0 75 -32 109.5t-101 34.5q-70 0 -101.5 -29t-31.5 -94h-348q0 172 116.5 249.5t374.5 77.5t375 -92.5t117 -296.5v-655h-287l-43 74q-97 -94 -305 -94zM696 451h-102q-99 0 -141.5 -27
t-42.5 -96q0 -57 28 -80t94 -23q86 0 125 44t39 141v41zM389 1126l184 308h369l-266 -308h-287z" />
    <glyph glyph-name="acircumflex" unicode="&#xe2;" horiz-adv-x="1146" 
d="M430 -20q-204 0 -296.5 77.5t-92.5 249.5q0 183 121.5 265.5t390.5 82.5h143v41q0 75 -32 109.5t-101 34.5q-70 0 -101.5 -29t-31.5 -94h-348q0 172 116.5 249.5t374.5 77.5t375 -92.5t117 -296.5v-655h-287l-43 74q-97 -94 -305 -94zM696 451h-102q-99 0 -141.5 -27
t-42.5 -96q0 -57 28 -80t94 -23q86 0 125 44t39 141v41zM758 1434l164 -308h-226l-123 144l-122 -144h-226l164 308h369z" />
    <glyph glyph-name="atilde" unicode="&#xe3;" horiz-adv-x="1105" 
d="M430 -20q-204 0 -296.5 77.5t-92.5 249.5q0 183 121.5 265.5t390.5 82.5h143v41q0 75 -32 109.5t-101 34.5q-70 0 -101.5 -29t-31.5 -94h-348q0 172 116.5 249.5t374.5 77.5t375 -92.5t117 -296.5v-655h-287l-43 74q-97 -94 -305 -94zM696 451h-102q-99 0 -141.5 -27
t-42.5 -96q0 -57 28 -80t94 -23q86 0 125 44t39 141v41zM389 1188h-164q0 108 67 187t159 79q51 0 91.5 -14.5t64.5 -36t42.5 -42.5t35 -35.5t32.5 -14.5t28.5 16t12.5 45h164q0 -108 -67 -187t-159 -79q-51 0 -91.5 14.5t-64.5 36t-42.5 42.5t-35 35.5t-32.5 14.5
t-28.5 -16t-12.5 -45z" />
    <glyph glyph-name="adieresis" unicode="&#xe4;" horiz-adv-x="1146" 
d="M430 -20q-204 0 -296.5 77.5t-92.5 249.5q0 183 121.5 265.5t390.5 82.5h143v41q0 75 -32 109.5t-101 34.5q-70 0 -101.5 -29t-31.5 -94h-348q0 172 116.5 249.5t374.5 77.5t375 -92.5t117 -296.5v-655h-287l-43 74q-97 -94 -305 -94zM696 451h-102q-99 0 -141.5 -27
t-42.5 -96q0 -57 28 -80t94 -23q86 0 125 44t39 141v41zM328 1536q107 0 155.5 -46.5t48.5 -148.5q0 -101 -48.5 -147.5t-155.5 -46.5q-108 0 -156.5 46t-48.5 148q0 101 49 148t156 47zM819 1536q107 0 156 -47t49 -148t-49 -147.5t-156 -46.5q-108 0 -156.5 46t-48.5 148
q0 101 49 148t156 47z" />
    <glyph glyph-name="aring" unicode="&#xe5;" horiz-adv-x="1146" 
d="M430 -20q-204 0 -296.5 77.5t-92.5 249.5q0 183 121.5 265.5t390.5 82.5h143v41q0 75 -32 109.5t-101 34.5q-70 0 -101.5 -29t-31.5 -94h-348q0 172 116.5 249.5t374.5 77.5t375 -92.5t117 -296.5v-655h-287l-43 74q-97 -94 -305 -94zM696 451h-102q-99 0 -141.5 -27
t-42.5 -96q0 -57 28 -80t94 -23q86 0 125 44t39 141v41zM573 1536q140 0 203.5 -53.5t63.5 -171.5t-63.5 -172t-203.5 -54q-139 0 -202.5 53.5t-63.5 172.5q0 118 63 171.5t203 53.5zM573 1229q43 0 62.5 19.5t19.5 62.5t-19.5 62.5t-62.5 19.5t-62 -19.5t-19 -62.5
t19 -62.5t62 -19.5z" />
    <glyph glyph-name="ae" unicode="&#xe6;" horiz-adv-x="1843" 
d="M1802 412h-737q0 -108 44 -156.5t142 -48.5q71 0 110 29.5t54 93.5h348q-32 -183 -154 -265.5t-358 -82.5q-156 0 -254 53t-147 166q-42 -113 -144.5 -166t-275.5 -53q-204 0 -296.5 77.5t-92.5 249.5q0 183 121.5 265.5t390.5 82.5h143v41q0 65 -34 94t-109 29
q-65 0 -94 -24t-29 -78h-348q0 172 116.5 250t374.5 78q244 0 340 -119q107 119 338 119q290 0 420.5 -126.5t130.5 -406.5v-102zM696 414v41h-100q-97 0 -140.5 -29t-43.5 -94q0 -54 29.5 -78.5t93.5 -24.5q87 -1 124 43t37 142zM1253 823q-98 0 -142 -48.5t-44 -156.5h369
q0 108 -43.5 156.5t-139.5 48.5z" />
    <glyph glyph-name="ccedilla" unicode="&#xe7;" horiz-adv-x="1187" 
d="M504 -18v2q-241 22 -352 149t-111 379q0 280 136 406t437 126q258 0 384.5 -97t148.5 -312h-369q-12 75 -51 109t-113 34q-107 0 -155.5 -63t-48.5 -203t48.5 -203t155.5 -63q72 0 111.5 34t52.5 109h369q-20 -197 -128.5 -294.5t-324.5 -110.5l-20 -84q7 -2 19.5 -5.5
t44.5 -18.5t56 -34t44 -53t20 -74q0 -105 -115 -165t-315 -60v143q164 0 164 82q0 30 -39.5 46t-103.5 16z" />
    <glyph glyph-name="egrave" unicode="&#xe8;" horiz-adv-x="1187" 
d="M410 410q0 -107 43.5 -156t140.5 -49q72 0 111.5 29.5t52.5 93.5h348q-32 -183 -154 -265.5t-358 -82.5q-290 0 -421.5 126t-131.5 406t131.5 406t421.5 126t421.5 -126t131.5 -406v-102h-737zM594 819q-97 0 -140.5 -49t-43.5 -156h368q0 107 -43.5 156t-140.5 49z
M573 1434l185 -308h-287l-266 308h368z" />
    <glyph glyph-name="eacute" unicode="&#xe9;" horiz-adv-x="1187" 
d="M410 410q0 -107 43.5 -156t140.5 -49q72 0 111.5 29.5t52.5 93.5h348q-32 -183 -154 -265.5t-358 -82.5q-290 0 -421.5 126t-131.5 406t131.5 406t421.5 126t421.5 -126t131.5 -406v-102h-737zM594 819q-97 0 -140.5 -49t-43.5 -156h368q0 107 -43.5 156t-140.5 49z
M430 1126l184 308h369l-266 -308h-287z" />
    <glyph glyph-name="ecircumflex" unicode="&#xea;" horiz-adv-x="1187" 
d="M410 410q0 -107 43.5 -156t140.5 -49q72 0 111.5 29.5t52.5 93.5h348q-32 -183 -154 -265.5t-358 -82.5q-290 0 -421.5 126t-131.5 406t131.5 406t421.5 126t421.5 -126t131.5 -406v-102h-737zM594 819q-97 0 -140.5 -49t-43.5 -156h368q0 107 -43.5 156t-140.5 49z
M778 1434l164 -308h-225l-123 144l-123 -144h-225l164 308h368z" />
    <glyph glyph-name="edieresis" unicode="&#xeb;" horiz-adv-x="1187" 
d="M410 410q0 -107 43.5 -156t140.5 -49q72 0 111.5 29.5t52.5 93.5h348q-32 -183 -154 -265.5t-358 -82.5q-290 0 -421.5 126t-131.5 406t131.5 406t421.5 126t421.5 -126t131.5 -406v-102h-737zM594 819q-97 0 -140.5 -49t-43.5 -156h368q0 107 -43.5 156t-140.5 49z
M348 1536q107 0 156 -47t49 -148t-49 -147.5t-156 -46.5q-108 0 -156.5 46t-48.5 148q0 101 49 148t156 47zM840 1536q107 0 155.5 -46.5t48.5 -148.5q0 -101 -48.5 -147.5t-155.5 -46.5q-108 0 -156.5 46t-48.5 148q0 101 49 148t156 47z" />
    <glyph glyph-name="igrave" unicode="&#xec;" horiz-adv-x="573" 
d="M471 0h-369v1024h369v-1024zM266 1434l185 -308h-287l-266 308h368z" />
    <glyph glyph-name="iacute" unicode="&#xed;" horiz-adv-x="552" 
d="M471 0h-369v1024h369v-1024zM102 1126l185 308h368l-266 -308h-287z" />
    <glyph glyph-name="icircumflex" unicode="&#xee;" horiz-adv-x="573" 
d="M471 0h-369v1024h369v-1024zM471 1434l164 -308h-225l-123 144l-123 -144h-225l163 308h369z" />
    <glyph glyph-name="idieresis" unicode="&#xef;" horiz-adv-x="573" 
d="M471 0h-369v1024h369v-1024zM41 1536q107 0 156 -47t49 -148t-49 -147.5t-156 -46.5q-108 0 -156.5 46t-48.5 148q0 101 49 148t156 47zM532 1536q107 0 156 -47t49 -148t-49 -147.5t-156 -46.5t-155.5 45.5t-48.5 148.5q0 102 48.5 148.5t155.5 46.5z" />
    <glyph glyph-name="ntilde" unicode="&#xf1;" horiz-adv-x="1208" 
d="M389 1024l41 -70q97 90 287 90q215 0 312 -116.5t97 -374.5v-553h-368v553q0 118 -34.5 171.5t-109.5 53.5t-109 -53.5t-34 -171.5v-553h-369v1024h287zM266 1188q0 108 67 187t159 79q51 0 91.5 -14.5t64.5 -36t42.5 -42.5t35 -35.5t32.5 -14.5t28.5 16t12.5 45h164
q0 -108 -67 -187t-159 -79q-51 0 -91.5 14.5t-64.5 36t-42.5 42.5t-35 35.5t-32.5 14.5t-28.5 -16t-12.5 -45h-164z" />
    <glyph glyph-name="ograve" unicode="&#xf2;" 
d="M614 1044q301 0 437.5 -126.5t136.5 -405.5t-136.5 -405.5t-437.5 -126.5t-437 126t-136 406t136 406t437 126zM410 512q0 -140 48.5 -203t155.5 -63t156 63.5t49 202.5t-49 202.5t-156 63.5t-155.5 -63t-48.5 -203zM594 1434l184 -308h-286l-267 308h369z" />
    <glyph glyph-name="oacute" unicode="&#xf3;" 
d="M614 1044q301 0 437.5 -126.5t136.5 -405.5t-136.5 -405.5t-437.5 -126.5t-437 126t-136 406t136 406t437 126zM410 512q0 -140 48.5 -203t155.5 -63t156 63.5t49 202.5t-49 202.5t-156 63.5t-155.5 -63t-48.5 -203zM451 1126l184 308h369l-267 -308h-286z" />
    <glyph glyph-name="ocircumflex" unicode="&#xf4;" 
d="M614 1044q301 0 437.5 -126.5t136.5 -405.5t-136.5 -405.5t-437.5 -126.5t-437 126t-136 406t136 406t437 126zM410 512q0 -140 48.5 -203t155.5 -63t156 63.5t49 202.5t-49 202.5t-156 63.5t-155.5 -63t-48.5 -203zM799 1434l164 -308h-226l-123 144l-122 -144h-226
l164 308h369z" />
    <glyph glyph-name="otilde" unicode="&#xf5;" 
d="M614 1044q301 0 437.5 -126.5t136.5 -405.5t-136.5 -405.5t-437.5 -126.5t-437 126t-136 406t136 406t437 126zM410 512q0 -140 48.5 -203t155.5 -63t156 63.5t49 202.5t-49 202.5t-156 63.5t-155.5 -63t-48.5 -203zM266 1188q0 108 67 187t159 79q51 0 91.5 -14.5
t64.5 -36t42.5 -42.5t35 -35.5t32.5 -14.5t28.5 16t12.5 45h164q0 -108 -67 -187t-159 -79q-51 0 -91.5 14.5t-64.5 36t-42.5 42.5t-35 35.5t-32.5 14.5t-28.5 -16t-12.5 -45h-164z" />
    <glyph glyph-name="odieresis" unicode="&#xf6;" 
d="M614 1044q301 0 437.5 -126.5t136.5 -405.5t-136.5 -405.5t-437.5 -126.5t-437 126t-136 406t136 406t437 126zM410 512q0 -140 48.5 -203t155.5 -63t156 63.5t49 202.5t-49 202.5t-156 63.5t-155.5 -63t-48.5 -203zM369 1536q107 0 155.5 -46.5t48.5 -148.5
q0 -101 -48.5 -147.5t-155.5 -46.5q-108 0 -156.5 46t-48.5 148q0 101 49 148t156 47zM860 1536q107 0 156 -47t49 -148t-49 -147.5t-156 -46.5q-108 0 -156.5 46t-48.5 148q0 101 49 148t156 47z" />
    <glyph glyph-name="divide" unicode="&#xf7;" horiz-adv-x="1146" 
d="M1106 410h-1065v266h1065v-266zM573 328q83 0 134 -48t51 -126t-51 -126t-134 -48t-133.5 48t-50.5 126t50.5 126t133.5 48zM575 1106q83 0 134 -48t51 -126t-51 -126t-134 -48t-133.5 48t-50.5 126t50.5 126t133.5 48z" />
    <glyph glyph-name="oslash" unicode="&#xf8;" 
d="M41 512q0 280 136 406t437 126q35 0 101 -4l43 127h164l-54 -151q165 -46 242.5 -169t77.5 -335q0 -279 -136.5 -405.5t-437.5 -126.5q-38 0 -100 4l-43 -127h-164l51 153q-164 46 -240.5 168t-76.5 334zM614 778q-107 0 -155.5 -63t-48.5 -203t48.5 -203t155.5 -63
t156 63.5t49 202.5t-49 202.5t-156 63.5z" />
    <glyph glyph-name="ugrave" unicode="&#xf9;" horiz-adv-x="1208" 
d="M819 0l-41 70q-97 -90 -286 -90q-215 0 -312.5 116.5t-97.5 374.5v553h369v-553q0 -118 34 -171.5t109 -53.5t109 53.5t34 171.5v553h369v-1024h-287zM614 1434l185 -308h-287l-266 308h368z" />
    <glyph glyph-name="uacute" unicode="&#xfa;" horiz-adv-x="1208" 
d="M819 0l-41 70q-97 -90 -286 -90q-215 0 -312.5 116.5t-97.5 374.5v553h369v-553q0 -118 34 -171.5t109 -53.5t109 53.5t34 171.5v553h369v-1024h-287zM389 1126l184 308h369l-266 -308h-287z" />
    <glyph glyph-name="ucircumflex" unicode="&#xfb;" horiz-adv-x="1208" 
d="M819 0l-41 70q-97 -90 -286 -90q-215 0 -312.5 116.5t-97.5 374.5v553h369v-553q0 -118 34 -171.5t109 -53.5t109 53.5t34 171.5v553h369v-1024h-287zM778 1434l164 -308h-225l-123 144l-123 -144h-225l164 308h368z" />
    <glyph glyph-name="udieresis" unicode="&#xfc;" horiz-adv-x="1208" 
d="M819 0l-41 70q-97 -90 -286 -90q-215 0 -312.5 116.5t-97.5 374.5v553h369v-553q0 -118 34 -171.5t109 -53.5t109 53.5t34 171.5v553h369v-1024h-287zM328 1536q107 0 155.5 -46.5t48.5 -148.5q0 -101 -48.5 -147.5t-155.5 -46.5q-108 0 -156.5 46t-48.5 148
q0 101 49 148t156 47zM819 1536q107 0 156 -47t49 -148t-49 -147.5t-156 -46.5q-108 0 -156.5 46t-48.5 148q0 101 49 148t156 47z" />
    <glyph glyph-name="yacute" unicode="&#xfd;" horiz-adv-x="1105" 
d="M575 455l183 569h348l-348 -1004q-44 -127 -79.5 -200.5t-79.5 -117t-90.5 -57.5t-119.5 -14h-246v226h144q28 0 42.5 3t34 15.5t35 43t31.5 81.5l8 27l-438 997h348zM430 1126l184 308h369l-266 -308h-287z" />
    <glyph glyph-name="ydieresis" unicode="&#xff;" horiz-adv-x="1105" 
d="M575 455l183 569h348l-348 -1004q-44 -127 -79.5 -200.5t-79.5 -117t-90.5 -57.5t-119.5 -14h-246v226h144q28 0 42.5 3t34 15.5t35 43t31.5 81.5l8 27l-438 997h348zM328 1536q107 0 155.5 -46.5t48.5 -148.5q0 -101 -48.5 -147.5t-155.5 -46.5q-108 0 -156.5 46
t-48.5 148q0 101 49 148t156 47zM819 1536q107 0 156 -47t49 -148t-49 -147.5t-156 -46.5q-108 0 -156.5 46t-48.5 148q0 101 49 148t156 47z" />
    <glyph glyph-name="Amacron" unicode="&#x100;" horiz-adv-x="1433" 
d="M1004 0h-3l-69 266h-449l-73 -266h-410l451 1434h573l410 -1434h-430zM715 1092l-158 -560h305zM387 1741h696v-205h-696v205z" />
    <glyph glyph-name="amacron" unicode="&#x101;" horiz-adv-x="1146" 
d="M430 -20q-204 0 -296.5 77.5t-92.5 249.5q0 183 121.5 265.5t390.5 82.5h143v41q0 75 -32 109.5t-101 34.5q-70 0 -101.5 -29t-31.5 -94h-348q0 172 116.5 249.5t374.5 77.5t375 -92.5t117 -296.5v-655h-287l-43 74q-97 -94 -305 -94zM696 451h-102q-99 0 -141.5 -27
t-42.5 -96q0 -57 28 -80t94 -23q86 0 125 44t39 141v41zM225 1188v205h697v-205h-697z" />
    <glyph glyph-name="Abreve" unicode="&#x102;" horiz-adv-x="1433" 
d="M1004 0h-3l-69 266h-449l-73 -266h-410l451 1434h573l410 -1434h-430zM715 1092l-158 -560h305zM1083 1782q0 -129 -82.5 -187.5t-265.5 -58.5t-265.5 58.5t-82.5 187.5h266q0 -43 19.5 -62.5t62.5 -19.5t62.5 19.5t19.5 62.5h266z" />
    <glyph glyph-name="abreve" unicode="&#x103;" horiz-adv-x="1146" 
d="M430 -20q-204 0 -296.5 77.5t-92.5 249.5q0 183 121.5 265.5t390.5 82.5h143v41q0 75 -32 109.5t-101 34.5q-70 0 -101.5 -29t-31.5 -94h-348q0 172 116.5 249.5t374.5 77.5t375 -92.5t117 -296.5v-655h-287l-43 74q-97 -94 -305 -94zM696 451h-102q-99 0 -141.5 -27
t-42.5 -96q0 -57 28 -80t94 -23q86 0 125 44t39 141v41zM676 1434h246q0 -161 -83 -234.5t-266 -73.5t-265.5 73.5t-82.5 234.5h246q0 -65 24 -94t78 -29t78.5 29.5t24.5 93.5z" />
    <glyph glyph-name="Aogonek" unicode="&#x104;" horiz-adv-x="1433" 
d="M1415 -184q-1 0 -2 -1l-2 -1v-285q-61 -41 -143 -41q-72 0 -126.5 34.5t-79.5 91t-27 122.5t30 137t92 127h-153l-70 266h-449l-73 -266h-410l451 1434h573l410 -1434h-90q-67 -67 -77 -133q-8 -63 50 -71l16 -1q36 0 74 19v2h6l2 2zM715 1094l-158 -559h305z" />
    <glyph glyph-name="aogonek" unicode="&#x105;" horiz-adv-x="1146" 
d="M737 74q-97 -94 -307 -94q-204 0 -296.5 77.5t-92.5 249.5q0 183 121.5 265.5t390.5 82.5h143v41q0 75 -32 109.5t-101 34.5q-70 0 -101.5 -29t-31.5 -94h-348q0 172 116.5 249.5t374.5 77.5t375 -92.5t117 -296.5v-655h-123q-43 -43 -64 -90.5t-8.5 -81t62.5 -33.5
q17 0 37.5 5.5t32.5 10.5l12 5v-287q-62 -41 -144 -41q-74 0 -129 36t-79.5 94.5t-24.5 126.5t35 140t100 127zM696 451h-102q-99 0 -141.5 -27t-42.5 -96q0 -57 28 -80t94 -23q86 0 125 44t39 141v41z" />
    <glyph glyph-name="Cacute" unicode="&#x106;" horiz-adv-x="1576" 
d="M1106 492h410q-60 -280 -225.5 -406.5t-471.5 -126.5q-397 0 -577.5 180.5t-180.5 577.5t180.5 577.5t577.5 180.5q326 0 491.5 -126.5t205.5 -406.5h-410q-23 118 -91 171.5t-196 53.5q-172 0 -249.5 -107t-77.5 -343t77.5 -343.5t249.5 -107.5q127 0 195.5 53.5
t91.5 172.5zM655 1536l185 246h348l-246 -246h-287z" />
    <glyph glyph-name="cacute" unicode="&#x107;" horiz-adv-x="1187" 
d="M778 389h369q-22 -215 -148.5 -312t-384.5 -97q-301 0 -437 126t-136 406t136 406t437 126q258 0 384.5 -97t148.5 -312h-369q-12 75 -51 109t-113 34q-107 0 -155.5 -63t-48.5 -203t48.5 -203t155.5 -63q72 0 111.5 34t52.5 109zM451 1126l184 308h369l-267 -308h-286z
" />
    <glyph glyph-name="Ccircumflex" unicode="&#x108;" horiz-adv-x="1576" 
d="M1106 492h410q-60 -280 -225.5 -406.5t-471.5 -126.5q-397 0 -577.5 180.5t-180.5 577.5t180.5 577.5t577.5 180.5q326 0 491.5 -126.5t205.5 -406.5h-410q-23 118 -91 171.5t-196 53.5q-172 0 -249.5 -107t-77.5 -343t77.5 -343.5t249.5 -107.5q127 0 195.5 53.5
t91.5 172.5zM1167 1536h-245l-103 102l-102 -102h-246l164 246h369z" />
    <glyph glyph-name="ccircumflex" unicode="&#x109;" horiz-adv-x="1187" 
d="M778 389h369q-22 -215 -148.5 -312t-384.5 -97q-301 0 -437 126t-136 406t136 406t437 126q258 0 384.5 -97t148.5 -312h-369q-12 75 -51 109t-113 34q-107 0 -155.5 -63t-48.5 -203t48.5 -203t155.5 -63q72 0 111.5 34t52.5 109zM799 1434l164 -308h-226l-123 144
l-122 -144h-226l164 308h369z" />
    <glyph glyph-name="Cdotaccent" unicode="&#x10a;" horiz-adv-x="1576" 
d="M1106 492h410q-60 -280 -225.5 -406.5t-471.5 -126.5q-397 0 -577.5 180.5t-180.5 577.5t180.5 577.5t577.5 180.5q326 0 491.5 -126.5t205.5 -406.5h-410q-23 118 -91 171.5t-196 53.5q-172 0 -249.5 -107t-77.5 -343t77.5 -343.5t249.5 -107.5q127 0 195.5 53.5
t91.5 172.5zM817 1843q107 0 156 -39t49 -125t-48.5 -124.5t-156.5 -38.5t-156.5 38.5t-48.5 124.5t49 125t156 39z" />
    <glyph glyph-name="cdotaccent" unicode="&#x10b;" horiz-adv-x="1187" 
d="M778 389h369q-22 -215 -148.5 -312t-384.5 -97q-301 0 -437 126t-136 406t136 406t437 126q258 0 384.5 -97t148.5 -312h-369q-12 75 -51 109t-113 34q-107 0 -155.5 -63t-48.5 -203t48.5 -203t155.5 -63q72 0 111.5 34t52.5 109zM612 1536q107 0 156 -43.5t49 -140.5
t-49 -141t-156 -44t-155.5 44t-48.5 141t48.5 140.5t155.5 43.5z" />
    <glyph glyph-name="Ccaron" unicode="&#x10c;" horiz-adv-x="1576" 
d="M1106 492h410q-60 -280 -225.5 -406.5t-471.5 -126.5q-397 0 -577.5 180.5t-180.5 577.5t180.5 577.5t577.5 180.5q326 0 491.5 -126.5t205.5 -406.5h-410q-23 118 -91 171.5t-196 53.5q-172 0 -249.5 -107t-77.5 -343t77.5 -343.5t249.5 -107.5q127 0 195.5 53.5
t91.5 172.5zM1147 1782l-164 -246h-369l-163 246h245l103 -103l102 103h246z" />
    <glyph glyph-name="ccaron" unicode="&#x10d;" horiz-adv-x="1187" 
d="M778 389h369q-22 -215 -148.5 -312t-384.5 -97q-301 0 -437 126t-136 406t136 406t437 126q258 0 384.5 -97t148.5 -312h-369q-12 75 -51 109t-113 34q-107 0 -155.5 -63t-48.5 -203t48.5 -203t155.5 -63q72 0 111.5 34t52.5 109zM963 1434l-164 -308h-369l-164 308h226
l122 -144l123 144h226z" />
    <glyph glyph-name="Dcaron" unicode="&#x10e;" horiz-adv-x="1515" 
d="M1454 717q0 -376 -175 -546.5t-562 -170.5h-594v1434h594q387 0 562 -170.5t175 -546.5zM696 1147h-164v-860h164q172 0 250 102t78 328t-78 328t-250 102zM1024 1782l-164 -246h-368l-164 246h245l103 -103l102 103h246z" />
    <glyph glyph-name="dcaron" unicode="&#x10f;" horiz-adv-x="1513" 
d="M500 -20l2 2q-236 0 -343.5 126.5t-107.5 405.5q0 280 107.5 406.5t343.5 126.5q181 0 284 -76v465h369v-1434h-287l-47 78q-53 -53 -128.5 -76.5t-192.5 -23.5zM602 246q97 0 140.5 63t43.5 203t-43.5 203t-140.5 63t-140.5 -63t-43.5 -203t43.5 -203t140.5 -63z
M1329 1454q75 0 109.5 -43.5t34.5 -140.5q0 -129 -63.5 -187.5t-203.5 -58.5v123q54 0 78.5 19.5t24.5 62.5q-65 0 -94 24t-29 78q0 65 34 94t109 29z" />
    <glyph glyph-name="Dcroat" unicode="&#x110;" horiz-adv-x="1576" 
d="M1516 717q0 -376 -175.5 -546.5t-562.5 -170.5h-594v655h-184v246h184v533h594q387 0 562.5 -170.5t175.5 -546.5zM758 1147h-164v-246h270v-246h-270v-368h164q172 0 249.5 102t77.5 328t-77.5 328t-249.5 102z" />
    <glyph glyph-name="dcroat" unicode="&#x111;" horiz-adv-x="1290" 
d="M778 969v157h-368v164h368v144h369v-144h143v-164h-143v-1126h-287l-45 82q-108 -102 -323 -102q-236 0 -343.5 126.5t-107.5 405.5t107.5 405.5t343.5 126.5q183 0 286 -75zM594 246q97 0 140.5 63t43.5 203t-43.5 203t-140.5 63t-140.5 -63t-43.5 -203t43.5 -203
t140.5 -63z" />
    <glyph glyph-name="Emacron" unicode="&#x112;" 
d="M1188 1147h-656v-266h574v-287h-574v-307h656v-287h-1065v1434h1065v-287zM305 1536v205h696v-205h-696z" />
    <glyph glyph-name="emacron" unicode="&#x113;" horiz-adv-x="1187" 
d="M410 410q0 -107 43.5 -156t140.5 -49q72 0 111.5 29.5t52.5 93.5h348q-32 -183 -154 -265.5t-358 -82.5q-290 0 -421.5 126t-131.5 406t131.5 406t421.5 126t421.5 -126t131.5 -406v-102h-737zM594 819q-97 0 -140.5 -49t-43.5 -156h368q0 107 -43.5 156t-140.5 49z
M244 1188v205h696v-205h-696z" />
    <glyph glyph-name="Ebreve" unicode="&#x114;" 
d="M1188 1147h-656v-266h574v-287h-574v-307h656v-287h-1065v1434h1065v-287zM1004 1782q0 -129 -83 -187.5t-266 -58.5t-265.5 58.5t-82.5 187.5h266q0 -43 19.5 -62.5t62.5 -19.5t62.5 19.5t19.5 62.5h267z" />
    <glyph glyph-name="ebreve" unicode="&#x115;" horiz-adv-x="1187" 
d="M410 410q0 -107 43.5 -156t140.5 -49q72 0 111.5 29.5t52.5 93.5h348q-32 -183 -154 -265.5t-358 -82.5q-290 0 -421.5 126t-131.5 406t131.5 406t421.5 126t421.5 -126t131.5 -406v-102h-737zM594 819q-97 0 -140.5 -49t-43.5 -156h368q0 107 -43.5 156t-140.5 49z
M696 1434h246q0 -161 -82.5 -234.5t-265.5 -73.5t-265.5 73.5t-82.5 234.5h246q0 -65 24 -94t78 -29t78 29t24 94z" />
    <glyph glyph-name="Edotaccent" unicode="&#x116;" 
d="M1188 1147h-656v-266h574v-287h-574v-307h656v-287h-1065v1434h1065v-287zM655 1843q107 0 156 -39t49 -125t-48.5 -124.5t-156.5 -38.5q-107 0 -155.5 38.5t-48.5 124.5t48.5 125t155.5 39z" />
    <glyph glyph-name="edotaccent" unicode="&#x117;" horiz-adv-x="1187" 
d="M410 410q0 -107 43.5 -156t140.5 -49q72 0 111.5 29.5t52.5 93.5h348q-32 -183 -154 -265.5t-358 -82.5q-290 0 -421.5 126t-131.5 406t131.5 406t421.5 126t421.5 -126t131.5 -406v-102h-737zM594 819q-97 0 -140.5 -49t-43.5 -156h368q0 107 -43.5 156t-140.5 49z
M594 1536q107 0 156 -43.5t49 -140.5t-49 -141t-156 -44t-156 44t-49 141t49 140.5t156 43.5z" />
    <glyph glyph-name="Eogonek" unicode="&#x118;" 
d="M1143 -184q-2 0 -4 -2v-285q-62 -41 -144 -41q-72 0 -126.5 34.5t-79 91t-26.5 122.5t30 137t92 127h-762v1434h1065v-287h-656v-266h574v-287h-574v-307h656v-287h-117q-43 -43 -64 -90.5t-8.5 -81t62.5 -33.5q21 0 78 19v2h4z" />
    <glyph glyph-name="eogonek" unicode="&#x119;" horiz-adv-x="1187" 
d="M930 -184l2 -4v-287q-62 -41 -144 -41q-87 0 -146.5 50t-78 123t4.5 161t89 159h-61q-290 0 -421.5 126.5t-131.5 406.5t131.5 406t421.5 126t421.5 -126t131.5 -406v-102h-737q0 -107 43.5 -156t140.5 -49q72 0 111.5 29.5t52.5 93.5h348q-40 -220 -213 -297
q-76 -57 -104 -131q-27 -71 17 -95q16 -8 40 -8q17 0 37.5 5.5t32.5 10.5zM594 819q-97 0 -140.5 -49t-43.5 -156h368q0 107 -43.5 156t-140.5 49z" />
    <glyph glyph-name="Ecaron" unicode="&#x11a;" 
d="M1188 1147h-656v-266h574v-287h-574v-307h656v-287h-1065v1434h1065v-287zM983 1782l-164 -246h-368l-164 246h245l103 -103l102 103h246z" />
    <glyph glyph-name="ecaron" unicode="&#x11b;" horiz-adv-x="1187" 
d="M410 410q0 -107 43.5 -156t140.5 -49q72 0 111.5 29.5t52.5 93.5h348q-32 -183 -154 -265.5t-358 -82.5q-290 0 -421.5 126t-131.5 406t131.5 406t421.5 126t421.5 -126t131.5 -406v-102h-737zM594 819q-97 0 -140.5 -49t-43.5 -156h368q0 107 -43.5 156t-140.5 49z
M942 1434l-164 -308h-368l-164 308h225l123 -144l123 144h225z" />
    <glyph glyph-name="Gbreve" unicode="&#x11e;" horiz-adv-x="1597" 
d="M819 573v267h717v-123q0 -398 -170.5 -578t-546.5 -180q-397 0 -577.5 180.5t-180.5 577.5t180.5 577.5t577.5 180.5q313 0 478.5 -117t218.5 -375h-390q-25 97 -97.5 140.5t-209.5 43.5q-172 0 -249.5 -107t-77.5 -343t77.5 -343.5t249.5 -107.5t250 73t78 234h-328z
M1167 1782q0 -129 -82.5 -187.5t-265.5 -58.5t-265.5 58.5t-82.5 187.5h266q0 -43 19.5 -62.5t62.5 -19.5t62.5 19.5t19.5 62.5h266z" />
    <glyph glyph-name="gbreve" unicode="&#x11f;" horiz-adv-x="1247" 
d="M489 1044v3q212 0 322 -101l47 78h287v-920q0 -280 -131.5 -407t-421.5 -127q-241 0 -362.5 82.5t-149.5 265.5h348q12 -65 46 -94t97 -29q107 0 156 59t49 187v14q-103 -75 -284 -75q-236 0 -343.5 126.5t-107.5 405.5q0 280 106 406t342 126zM592 780
q-97 0 -140.5 -62.5t-43.5 -201.5q0 -140 43.5 -204t140.5 -64t140.5 64t43.5 204q0 139 -43.5 201.5t-140.5 62.5zM694 1434h246q0 -161 -82.5 -234.5t-265.5 -73.5t-265.5 73.5t-82.5 234.5h245q0 -64 24.5 -93.5t78.5 -29.5t78 29t24 94z" />
    <glyph glyph-name="Gdotaccent" unicode="&#x120;" horiz-adv-x="1597" 
d="M819 573v267h717v-123q0 -398 -170.5 -578t-546.5 -180q-397 0 -577.5 180.5t-180.5 577.5t180.5 577.5t577.5 180.5q313 0 478.5 -117t218.5 -375h-390q-25 97 -97.5 140.5t-209.5 43.5q-172 0 -249.5 -107t-77.5 -343t77.5 -343.5t249.5 -107.5t250 73t78 234h-328z
M817 1843q107 0 156 -39t49 -125t-48.5 -124.5t-156.5 -38.5t-156.5 38.5t-48.5 124.5t49 125t156 39z" />
    <glyph glyph-name="gdotaccent" unicode="&#x121;" horiz-adv-x="1247" 
d="M489 1044v3q212 0 322 -101l47 78h287v-920q0 -280 -131.5 -407t-421.5 -127q-241 0 -362.5 82.5t-149.5 265.5h348q12 -65 46 -94t97 -29q107 0 156 59t49 187v14q-103 -75 -284 -75q-236 0 -343.5 126.5t-107.5 405.5q0 280 106 406t342 126zM592 780
q-97 0 -140.5 -62.5t-43.5 -201.5q0 -140 43.5 -204t140.5 -64t140.5 64t43.5 204q0 139 -43.5 201.5t-140.5 62.5zM592 1536q107 0 156 -43.5t49 -140.5t-49 -141t-156 -44t-156 44t-49 141t49 140.5t156 43.5z" />
    <glyph glyph-name="Gcedilla" unicode="&#x122;" horiz-adv-x="1597" 
d="M819 573v267h717v-123q0 -398 -170.5 -578t-546.5 -180q-397 0 -577.5 180.5t-180.5 577.5t180.5 577.5t577.5 180.5q313 0 478.5 -117t218.5 -375h-390q-25 97 -97.5 140.5t-209.5 43.5q-172 0 -249.5 -107t-77.5 -343t77.5 -343.5t249.5 -107.5t250 73t78 234h-328z
M819 -82q75 0 109.5 -43.5t34.5 -140.5q0 -129 -63.5 -187.5t-203.5 -58.5v123q54 0 78.5 19.5t24.5 62.5q-65 0 -94 24t-29 78q0 65 34 94t109 29z" />
    <glyph glyph-name="gcedilla" unicode="&#x123;" horiz-adv-x="1247" 
d="M489 1044v3q212 0 322 -101l47 78h287v-920q0 -280 -131.5 -407t-421.5 -127q-241 0 -362.5 82.5t-149.5 265.5h348q12 -65 46 -94t97 -29q107 0 156 59t49 187v14q-103 -75 -284 -75q-236 0 -343.5 126.5t-107.5 405.5q0 280 106 406t342 126zM592 780
q-97 0 -140.5 -62.5t-43.5 -201.5q0 -140 43.5 -204t140.5 -64t140.5 64t43.5 204q0 139 -43.5 201.5t-140.5 62.5zM633 1106q-75 0 -109.5 43.5t-34.5 140.5q0 129 63.5 187.5t203.5 58.5v-123q-54 0 -78.5 -19.5t-24.5 -62.5q65 0 94 -24t29 -78q0 -65 -34 -94t-109 -29z
" />
    <glyph glyph-name="Itilde" unicode="&#x128;" horiz-adv-x="696" 
d="M143 1434h410v-1434h-410v1434zM0 1556q0 104 64.5 165t160.5 61q62 0 110.5 -13t71.5 -28t51 -28t54 -13q15 0 28 13t13 28h143q0 -104 -64.5 -164.5t-160.5 -60.5q-62 0 -110.5 12.5t-71.5 28t-51 28t-54 12.5q-15 0 -28 -13t-13 -28h-143z" />
    <glyph glyph-name="itilde" unicode="&#x129;" horiz-adv-x="573" 
d="M471 0h-369v1024h369v-1024zM-61 1188q0 108 66.5 187t158.5 79q51 0 91.5 -14.5t64.5 -36t42.5 -42.5t35 -35.5t32.5 -14.5t28.5 16t12.5 45h164q0 -108 -66.5 -187t-158.5 -79q-51 0 -92 14.5t-65 36t-42 42.5t-35 35.5t-33 14.5t-28.5 -16t-12.5 -45h-163z" />
    <glyph glyph-name="Imacron" unicode="&#x12a;" horiz-adv-x="696" 
d="M143 1434h410v-1434h-410v1434zM0 1536v205h696v-205h-696z" />
    <glyph glyph-name="imacron" unicode="&#x12b;" horiz-adv-x="573" 
d="M471 0h-369v1024h369v-1024zM-61 1188v205h696v-205h-696z" />
    <glyph glyph-name="Iogonek" unicode="&#x12e;" horiz-adv-x="655" 
d="M532 -184q-2 0 -4 -2v-285q-61 -41 -143 -41q-72 0 -126.5 34.5t-79.5 91t-27 122.5t30 137t92 127h-151v1434h409v-1434h-71q-43 -43 -64 -90.5t-8.5 -81t62.5 -33.5q20 0 77 19v2h4z" />
    <glyph glyph-name="iogonek" unicode="&#x12f;" horiz-adv-x="614" 
d="M496 -184q-2 0 -4 -2v-285q-62 -41 -144 -41q-72 0 -126.5 34.5t-79 91t-26.5 122.5t30 137t92 127h-113v1024h369v-1024h-70q-43 -43 -64 -90.5t-8.5 -81t62.5 -33.5q21 0 78 19v2h4zM307 1495q107 0 156 -43.5t49 -140.5t-49 -141t-156 -44t-156 44t-49 141t49 140.5
t156 43.5z" />
    <glyph glyph-name="Idotaccent" unicode="&#x130;" horiz-adv-x="655" 
d="M123 1434h409v-1434h-409v1434zM328 1843q107 0 155.5 -39t48.5 -125t-48.5 -124.5t-155.5 -38.5q-108 0 -156.5 38.5t-48.5 124.5t49 125t156 39z" />
    <glyph glyph-name="dotlessi" unicode="&#x131;" horiz-adv-x="573" 
d="M471 0h-369v1024h369v-1024z" />
    <glyph glyph-name="IJ" unicode="&#x132;" horiz-adv-x="1863" 
d="M123 1434h409v-1434h-409v1434zM717 430v82h389v-82q0 -86 29 -125t94 -39t94 39t29 125v1004h409v-1004q0 -236 -126 -343t-406 -107q-269 0 -390.5 107t-121.5 343z" />
    <glyph glyph-name="ij" unicode="&#x133;" 
d="M492 0h-369v1024h369v-1024zM655 -102q46 0 74.5 28t28.5 74v1024h368v-1065q0 -154 -86.5 -241t-240.5 -87h-328v267h184zM307 1495q107 0 156 -43.5t49 -140.5t-49 -141t-156 -44t-156 44t-49 141t49 140.5t156 43.5zM942 1495q107 0 156 -43.5t49 -140.5t-49 -141
t-156 -44t-156 44t-49 141t49 140.5t156 43.5z" />
    <glyph glyph-name="Kcedilla" unicode="&#x136;" horiz-adv-x="1495" 
d="M532 1434v-523l431 523h491l-573 -697l614 -737h-491l-472 565v-565h-409v1434h409zM717 -82q75 0 109 -43.5t34 -140.5q0 -129 -63.5 -187.5t-202.5 -58.5v123q54 0 78 19.5t24 62.5q-65 0 -94 24t-29 78q0 64 34.5 93.5t109.5 29.5z" />
    <glyph glyph-name="kcedilla" unicode="&#x137;" horiz-adv-x="1249" 
d="M471 412v-412h-369v1434h369v-779l307 369h430l-409 -492l450 -532h-430zM614 -82q75 0 109.5 -43.5t34.5 -140.5q0 -129 -63.5 -187.5t-202.5 -58.5v123q54 0 78 19.5t24 62.5q-65 0 -94 24t-29 78q0 65 34 94t109 29z" />
    <glyph glyph-name="Lacute" unicode="&#x139;" horiz-adv-x="1167" 
d="M1106 307v-307h-983v1434h409v-1127h574zM184 1536l185 246h348l-246 -246h-287z" />
    <glyph glyph-name="lacute" unicode="&#x13a;" horiz-adv-x="573" 
d="M471 1434v-1434h-369v1434h369zM143 1536l185 246h348l-246 -246h-287z" />
    <glyph glyph-name="Lcedilla" unicode="&#x13b;" horiz-adv-x="1167" 
d="M1106 307v-307h-983v1434h409v-1127h574zM614 -82q75 0 109.5 -43.5t34.5 -140.5q0 -129 -63.5 -187.5t-202.5 -58.5v123q54 0 78 19.5t24 62.5q-65 0 -94 24t-29 78q0 65 34 94t109 29z" />
    <glyph glyph-name="lcedilla" unicode="&#x13c;" horiz-adv-x="573" 
d="M471 1434v-1434h-369v1434h369zM287 -82q75 0 109 -43.5t34 -140.5q0 -129 -63.5 -187.5t-202.5 -58.5v123q54 0 78 19.5t24 62.5q-65 0 -94 24t-29 78q0 64 34.5 93.5t109.5 29.5z" />
    <glyph glyph-name="Lcaron" unicode="&#x13d;" horiz-adv-x="1167" 
d="M1106 307v-307h-983v1434h409v-1127h574zM758 1454q75 0 109 -43.5t34 -140.5q0 -129 -63.5 -187.5t-202.5 -58.5v123q54 0 78 19.5t24 62.5q-65 0 -94 24t-29 78q0 64 34.5 93.5t109.5 29.5z" />
    <glyph glyph-name="lcaron" unicode="&#x13e;" horiz-adv-x="880" 
d="M471 1434v-1434h-369v1434h369zM696 1452q75 0 109.5 -43.5t34.5 -140.5q0 -129 -63.5 -187.5t-203.5 -58.5v123q54 0 78.5 19.5t24.5 62.5q-65 0 -94 24t-29 78q0 65 34 94t109 29z" />
    <glyph glyph-name="Lslash" unicode="&#x141;" 
d="M1167 307v-307h-983v621l-184 -109v266l184 109v547h410v-308l348 205v-266l-348 -205v-553h573z" />
    <glyph glyph-name="lslash" unicode="&#x142;" horiz-adv-x="819" 
d="M594 1434v-9v-331l184 108v-266l-184 -107v-833h-369v620l-184 -106v266l184 109v549h369z" />
    <glyph glyph-name="Nacute" unicode="&#x143;" horiz-adv-x="1556" 
d="M1044 1434h390v-1434h-471l-451 922v-922h-389v1434h471l450 -922v922zM614 1536l185 246h348l-246 -246h-287z" />
    <glyph glyph-name="nacute" unicode="&#x144;" horiz-adv-x="1208" 
d="M389 1024l41 -70q97 90 287 90q215 0 312 -116.5t97 -374.5v-553h-368v553q0 118 -34.5 171.5t-109.5 53.5t-109 -53.5t-34 -171.5v-553h-369v1024h287zM451 1126l184 308h369l-267 -308h-286z" />
    <glyph glyph-name="Ncedilla" unicode="&#x145;" horiz-adv-x="1556" 
d="M1044 1434h390v-1434h-471l-451 922v-922h-389v1434h471l450 -922v922zM778 -82q75 0 109.5 -43.5t34.5 -140.5q0 -129 -63.5 -187.5t-203.5 -58.5v123q54 0 78.5 19.5t24.5 62.5q-65 0 -94 24t-29 78q0 65 34 94t109 29z" />
    <glyph glyph-name="ncedilla" unicode="&#x146;" horiz-adv-x="1208" 
d="M389 1024l41 -70q97 90 287 90q215 0 312 -116.5t97 -374.5v-553h-368v553q0 118 -34.5 171.5t-109.5 53.5t-109 -53.5t-34 -171.5v-553h-369v1024h287zM612 -82q75 0 109.5 -43.5t34.5 -140.5q0 -129 -63.5 -187.5t-203.5 -58.5v123q54 0 78.5 19.5t24.5 62.5
q-65 0 -94 24t-29 78q0 65 34 94t109 29z" />
    <glyph glyph-name="Ncaron" unicode="&#x147;" horiz-adv-x="1556" 
d="M1044 1434h390v-1434h-471l-451 922v-922h-389v1434h471l450 -922v922zM1106 1782l-164 -246h-369l-163 246h245l103 -103l102 103h246z" />
    <glyph glyph-name="ncaron" unicode="&#x148;" horiz-adv-x="1208" 
d="M389 1024l41 -70q97 90 287 90q215 0 312 -116.5t97 -374.5v-553h-368v553q0 118 -34.5 171.5t-109.5 53.5t-109 -53.5t-34 -171.5v-553h-369v1024h287zM963 1434l-164 -308h-369l-164 308h226l122 -144l123 144h226z" />
    <glyph glyph-name="Omacron" unicode="&#x14c;" horiz-adv-x="1638" 
d="M819 1475q397 0 577.5 -180.5t180.5 -577.5t-180.5 -577.5t-577.5 -180.5t-577.5 180.5t-180.5 577.5t180.5 577.5t577.5 180.5zM819 266q172 0 250 107.5t78 343.5t-78 343t-250 107t-249.5 -107t-77.5 -343t77.5 -343.5t249.5 -107.5zM469 1536v205h696v-205h-696z" />
    <glyph glyph-name="omacron" unicode="&#x14d;" 
d="M614 1044q301 0 437.5 -126.5t136.5 -405.5t-136.5 -405.5t-437.5 -126.5t-437 126t-136 406t136 406t437 126zM410 512q0 -140 48.5 -203t155.5 -63t156 63.5t49 202.5t-49 202.5t-156 63.5t-155.5 -63t-48.5 -203zM264 1126v205h697v-205h-697z" />
    <glyph glyph-name="Obreve" unicode="&#x14e;" horiz-adv-x="1638" 
d="M819 1475q397 0 577.5 -180.5t180.5 -577.5t-180.5 -577.5t-577.5 -180.5t-577.5 180.5t-180.5 577.5t180.5 577.5t577.5 180.5zM819 266q172 0 250 107.5t78 343.5t-78 343t-250 107t-249.5 -107t-77.5 -343t77.5 -343.5t249.5 -107.5zM1167 1782q0 -129 -82.5 -187.5
t-265.5 -58.5t-265.5 58.5t-82.5 187.5h266q0 -43 19.5 -62.5t62.5 -19.5t62.5 19.5t19.5 62.5h266z" />
    <glyph glyph-name="obreve" unicode="&#x14f;" 
d="M614 1044q301 0 437.5 -126.5t136.5 -405.5t-136.5 -405.5t-437.5 -126.5t-437 126t-136 406t136 406t437 126zM410 512q0 -140 48.5 -203t155.5 -63t156 63.5t49 202.5t-49 202.5t-156 63.5t-155.5 -63t-48.5 -203zM717 1434h246q0 -161 -83 -234.5t-266 -73.5
t-265.5 73.5t-82.5 234.5h246q0 -65 24 -94t78 -29t78.5 29.5t24.5 93.5z" />
    <glyph glyph-name="Ohungarumlaut" unicode="&#x150;" horiz-adv-x="1638" 
d="M819 1475q397 0 577.5 -180.5t180.5 -577.5t-180.5 -577.5t-577.5 -180.5t-577.5 180.5t-180.5 577.5t180.5 577.5t577.5 180.5zM819 266q172 0 250 107.5t78 343.5t-78 343t-250 107t-249.5 -107t-77.5 -343t77.5 -343.5t249.5 -107.5zM451 1536l163 307h349l-246 -307
h-266zM922 1536l163 307h349l-246 -307h-266z" />
    <glyph glyph-name="ohungarumlaut" unicode="&#x151;" horiz-adv-x="1269" 
d="M614 1044q301 0 437.5 -126.5t136.5 -405.5t-136.5 -405.5t-437.5 -126.5t-437 126t-136 406t136 406t437 126zM410 512q0 -140 48.5 -203t155.5 -63t156 63.5t49 202.5t-49 202.5t-156 63.5t-155.5 -63t-48.5 -203zM246 1126l164 308h348l-246 -308h-266zM717 1126
l164 308h348l-246 -308h-266z" />
    <glyph glyph-name="OE" unicode="&#x152;" horiz-adv-x="2211" 
d="M2171 1147h-615v-266h533v-287h-533v-307h615v-287h-983v123q-68 -85 -175 -124.5t-272 -39.5q-351 0 -515.5 181.5t-164.5 576.5t164.5 576.5t515.5 181.5q165 0 272 -39.5t175 -124.5v123h983v-287zM819 266q172 0 250 107.5t78 343.5t-78 343t-250 107t-249.5 -107
t-77.5 -343t77.5 -343.5t249.5 -107.5z" />
    <glyph glyph-name="oe" unicode="&#x153;" horiz-adv-x="1927" 
d="M1147 410q0 -108 44 -156.5t142 -48.5q60 0 106 34t58 89h348q-28 -155 -169.5 -251.5t-342.5 -96.5q-206 0 -336 102q-117 -102 -383 -102q-301 0 -437 126t-136 406t136 406t437 126q266 0 383 -102q130 102 336 102q251 0 402 -145.5t151 -386.5v-102h-739zM412 512
q0 -140 48.5 -203t155.5 -63t156 63.5t49 202.5t-49 202.5t-156 63.5t-155.5 -63t-48.5 -203zM1333 819q-98 0 -142 -48.5t-44 -156.5h371q0 92 -51 148.5t-134 56.5z" />
    <glyph glyph-name="Racute" unicode="&#x154;" horiz-adv-x="1474" 
d="M700 512h-168v-512h-409v1434h676q120 0 217 -25.5t162.5 -69.5t109.5 -104.5t64 -128t20 -143.5q0 -311 -282 -410l323 -553h-430zM532 778h246q89 0 137 52.5t48 132.5t-48 132t-137 52h-246v-369zM512 1536l184 246h348l-245 -246h-287z" />
    <glyph glyph-name="racute" unicode="&#x155;" horiz-adv-x="880" 
d="M674 737h-2q-106 0 -154.5 -53.5t-48.5 -171.5v-512h-369v1024h287l49 -88q51 57 107.5 82.5t130.5 25.5h164v-307h-164zM307 1126l185 308h368l-266 -308h-287z" />
    <glyph glyph-name="Rcedilla" unicode="&#x156;" horiz-adv-x="1474" 
d="M700 512h-168v-512h-409v1434h676q120 0 217 -25.5t162.5 -69.5t109.5 -104.5t64 -128t20 -143.5q0 -311 -282 -410l323 -553h-430zM532 778h246q89 0 137 52.5t48 132.5t-48 132t-137 52h-246v-369zM737 -82q75 0 109.5 -43.5t34.5 -140.5q0 -129 -63.5 -187.5
t-203.5 -58.5v123q54 0 78.5 19.5t24.5 62.5q-65 0 -94 24t-29 78q0 65 34 94t109 29z" />
    <glyph glyph-name="rcedilla" unicode="&#x157;" horiz-adv-x="858" 
d="M674 737h-2q-106 0 -154.5 -53.5t-48.5 -171.5v-512h-369v1024h287l49 -88q51 57 107.5 82.5t130.5 25.5h164v-307h-164zM287 -82q75 0 109 -43.5t34 -140.5q0 -129 -63.5 -187.5t-202.5 -58.5v123q54 0 78 19.5t24 62.5q-65 0 -94 24t-29 78q0 64 34.5 93.5t109.5 29.5z
" />
    <glyph glyph-name="Rcaron" unicode="&#x158;" horiz-adv-x="1474" 
d="M682 512h-150v-512h-409v1434h676q120 0 217 -25.5t162.5 -69.5t109.5 -104.5t64 -128t20 -143.5q0 -320 -299 -414l340 -549h-430zM532 778h267q87 0 125.5 50.5t38.5 134.5q0 184 -164 184h-267v-369zM1004 1782l-164 -246h-369l-164 246h246l102 -103l103 103h246z
" />
    <glyph glyph-name="rcaron" unicode="&#x159;" horiz-adv-x="858" 
d="M674 737h-2q-106 0 -154.5 -53.5t-48.5 -171.5v-512h-369v1024h287l49 -88q51 57 107.5 82.5t130.5 25.5h164v-307h-164zM819 1434l-164 -308h-368l-164 308h225l123 -144l123 144h225z" />
    <glyph glyph-name="Sacute" unicode="&#x15a;" horiz-adv-x="1351" 
d="M471 1065q0 -36 28 -62.5t75.5 -45t109 -34t129.5 -34t135.5 -41t129 -58.5t109 -82.5t75.5 -117.5t28 -160q0 -247 -145.5 -359t-468.5 -112q-322 0 -468.5 107.5t-146.5 343.5h369q0 -97 58.5 -141t187.5 -44q118 0 171.5 34.5t53.5 109.5q0 46 -28 80.5t-75.5 57
t-109 41t-129.5 36.5t-135.5 39t-129 53t-109 74t-75.5 107t-28 147q0 247 141 359t453 112t453 -107.5t141 -343.5h-369q0 97 -53.5 140.5t-171.5 43.5q-107 0 -156 -34t-49 -109zM512 1536l184 246h348l-245 -246h-287z" />
    <glyph glyph-name="sacute" unicode="&#x15b;" horiz-adv-x="1044" 
d="M389 756q0 -32 34 -52.5t88 -32t119.5 -22.5t131.5 -32t120 -53t88 -92.5t34 -143.5q0 -183 -120 -265.5t-384 -82.5q-241 0 -350 77.5t-109 249.5h348q0 -65 29.5 -94t93.5 -29t93.5 24.5t29.5 78.5q0 37 -33 60t-85 34.5t-115.5 22.5t-127 30.5t-115.5 50t-85 90
t-33 142.5q0 172 112 249.5t359 77.5q236 0 343.5 -73t107.5 -234h-328q0 54 -29.5 78.5t-93.5 24.5q-65 0 -94 -20t-29 -64zM348 1126l184 308h369l-266 -308h-287z" />
    <glyph glyph-name="Scircumflex" unicode="&#x15c;" horiz-adv-x="1351" 
d="M471 1065q0 -36 28 -62.5t75.5 -45t109 -34t129.5 -34t135.5 -41t129 -58.5t109 -82.5t75.5 -117.5t28 -160q0 -247 -145.5 -359t-468.5 -112q-322 0 -468.5 107.5t-146.5 343.5h369q0 -97 58.5 -141t187.5 -44q118 0 171.5 34.5t53.5 109.5q0 46 -28 80.5t-75.5 57
t-109 41t-129.5 36.5t-135.5 39t-129 53t-109 74t-75.5 107t-28 147q0 247 141 359t453 112t453 -107.5t141 -343.5h-369q0 97 -53.5 140.5t-171.5 43.5q-107 0 -156 -34t-49 -109zM1024 1536h-246l-102 102l-103 -102h-245l164 246h368z" />
    <glyph glyph-name="scircumflex" unicode="&#x15d;" horiz-adv-x="1044" 
d="M389 756q0 -32 34 -52.5t88 -32t119.5 -22.5t131.5 -32t120 -53t88 -92.5t34 -143.5q0 -183 -120 -265.5t-384 -82.5q-241 0 -350 77.5t-109 249.5h348q0 -65 29.5 -94t93.5 -29t93.5 24.5t29.5 78.5q0 37 -33 60t-85 34.5t-115.5 22.5t-127 30.5t-115.5 50t-85 90
t-33 142.5q0 172 112 249.5t359 77.5q236 0 343.5 -73t107.5 -234h-328q0 54 -29.5 78.5t-93.5 24.5q-65 0 -94 -20t-29 -64zM696 1434l164 -308h-225l-123 144l-123 -144h-225l164 308h368z" />
    <glyph glyph-name="Scedilla" unicode="&#x15e;" horiz-adv-x="1351" 
d="M563 -37h-2q-261 17 -380.5 124.5t-119.5 322.5h369q0 -97 58.5 -141t187.5 -44q118 0 171.5 34.5t53.5 109.5q0 46 -28 80.5t-75.5 57t-109 41t-129.5 36.5t-135.5 39t-129 53t-109 74t-75.5 107t-28 147q0 247 141 359t453 112t453 -107.5t141 -343.5h-369
q0 97 -53.5 140.5t-171.5 43.5q-107 0 -156 -34t-49 -109q0 -36 28 -62.5t75.5 -45t109 -34t129.5 -34t135.5 -41t129 -58.5t109 -82.5t75.5 -117.5t28 -160q0 -232 -127.5 -344.5t-408.5 -124.5l-15 -63q8 -2 20 -5.5t44 -18.5t56.5 -34t44.5 -53t20 -74q0 -105 -115 -165
t-315 -60v143q163 0 163 82q0 30 -39.5 46t-103.5 16z" />
    <glyph glyph-name="scedilla" unicode="&#x15f;" horiz-adv-x="1044" 
d="M401 -16h5q-190 13 -277.5 91t-87.5 232h348q0 -65 29.5 -94t93.5 -29t93.5 24.5t29.5 78.5q0 37 -33 60t-85 34.5t-115.5 22.5t-127 30.5t-115.5 50t-85 90t-33 142.5q0 172 112 249.5t359 77.5q236 0 343.5 -73t107.5 -234h-328q0 54 -29.5 78.5t-93.5 24.5
q-65 0 -94 -20t-29 -64q0 -32 34 -52.5t88 -32t119.5 -22.5t131.5 -32t120 -53t88 -92.5t34 -143.5q0 -166 -98.5 -249.5t-313.5 -96.5l-21 -84q8 -2 20 -5.5t44 -18.5t56.5 -34t44.5 -53t20 -74q0 -105 -115 -165t-315 -60v143q163 0 163 82q0 30 -39.5 46t-103.5 16z" />
    <glyph glyph-name="Scaron" unicode="&#x160;" horiz-adv-x="1351" 
d="M471 1065q0 -36 28 -62.5t75.5 -45t109 -34t129.5 -34t135.5 -41t129 -58.5t109 -82.5t75.5 -117.5t28 -160q0 -247 -145.5 -359t-468.5 -112q-322 0 -468.5 107.5t-146.5 343.5h369q0 -97 58.5 -141t187.5 -44q118 0 171.5 34.5t53.5 109.5q0 46 -28 80.5t-75.5 57
t-109 41t-129.5 36.5t-135.5 39t-129 53t-109 74t-75.5 107t-28 147q0 247 141 359t453 112t453 -107.5t141 -343.5h-369q0 97 -53.5 140.5t-171.5 43.5q-107 0 -156 -34t-49 -109zM1004 1782l-164 -246h-369l-164 246h246l102 -103l103 103h246z" />
    <glyph glyph-name="scaron" unicode="&#x161;" horiz-adv-x="1044" 
d="M389 756q0 -32 34 -52.5t88 -32t119.5 -22.5t131.5 -32t120 -53t88 -92.5t34 -143.5q0 -183 -120 -265.5t-384 -82.5q-241 0 -350 77.5t-109 249.5h348q0 -65 29.5 -94t93.5 -29t93.5 24.5t29.5 78.5q0 37 -33 60t-85 34.5t-115.5 22.5t-127 30.5t-115.5 50t-85 90
t-33 142.5q0 172 112 249.5t359 77.5q236 0 343.5 -73t107.5 -234h-328q0 54 -29.5 78.5t-93.5 24.5q-65 0 -94 -20t-29 -64zM860 1434l-164 -308h-368l-164 308h225l123 -144l123 144h225z" />
    <glyph glyph-name="Tcedilla" unicode="&#x162;" horiz-adv-x="1310" 
d="M551 0h-100v1126h-410v308h1229v-308h-410v-1126h-119l-24 -102q7 -2 19.5 -5.5t44.5 -18.5t56 -34t44 -53t20 -74q0 -105 -115 -165t-315 -60v143q164 0 164 82q0 30 -39.5 46t-103.5 16z" />
    <glyph glyph-name="tcedilla" unicode="&#x163;" horiz-adv-x="921" 
d="M432 12q-108 26 -167.5 108.5t-59.5 207.5v471h-164v225h164v266h368v-266h287v-225h-287v-430q0 -46 28.5 -74.5t74.5 -28.5h184v-266h-242l-24 -102q7 -2 19.5 -5.5t44.5 -18.5t56 -34t44 -53t20 -74q0 -105 -115 -165t-315 -60v143q164 0 164 82q0 30 -39.5 46
t-103.5 16z" />
    <glyph glyph-name="Tcaron" unicode="&#x164;" horiz-adv-x="1310" 
d="M1270 1434v-308h-410v-1126h-409v1126h-410v308h1229zM983 1782l-164 -246h-368l-164 246h245l103 -103l102 103h246z" />
    <glyph glyph-name="tcaron" unicode="&#x165;" horiz-adv-x="919" 
d="M573 369q0 -46 28.5 -74.5t74.5 -28.5h184v-266h-328q-154 0 -240.5 87t-86.5 241v471h-164v225h164v266h368v-266h287v-225h-287v-430zM776 1495q75 0 109.5 -43.5t34.5 -140.5q0 -129 -63.5 -187.5t-203.5 -58.5v123q54 0 78.5 19.5t24.5 62.5q-65 0 -94 24t-29 78
q0 65 34 94t109 29z" />
    <glyph glyph-name="Utilde" unicode="&#x168;" horiz-adv-x="1515" 
d="M123 532v902h409v-902q0 -139 53.5 -202.5t172.5 -63.5q118 0 171.5 63t53.5 203v902h410v-902q0 -301 -151 -437t-484 -136t-484 136t-151 437zM410 1556q0 104 64.5 165t160.5 61q62 0 110.5 -13t71.5 -28t51 -28t54 -13q15 0 28 13t13 28h143q0 -104 -64.5 -164.5
t-160.5 -60.5q-62 0 -110.5 12.5t-71.5 28t-51 28t-54 12.5q-15 0 -28 -13t-13 -28h-143z" />
    <glyph glyph-name="utilde" unicode="&#x169;" horiz-adv-x="1208" 
d="M819 0l-41 70q-97 -90 -286 -90q-215 0 -312.5 116.5t-97.5 374.5v553h369v-553q0 -118 34 -171.5t109 -53.5t109 53.5t34 171.5v553h369v-1024h-287zM246 1229q0 108 66.5 187t158.5 79q51 0 91.5 -14.5t64.5 -35.5t42.5 -42.5t35 -36t32.5 -14.5t28.5 16t12.5 45h164
q0 -108 -66.5 -187t-158.5 -79q-51 0 -91.5 14.5t-64.5 35.5t-42.5 42.5t-35 36t-32.5 14.5t-28.5 -16t-12.5 -45h-164z" />
    <glyph glyph-name="Umacron" unicode="&#x16a;" horiz-adv-x="1515" 
d="M123 532v902h409v-902q0 -139 53.5 -202.5t172.5 -63.5q118 0 171.5 63t53.5 203v902h410v-902q0 -301 -151 -437t-484 -136t-484 136t-151 437zM408 1536v205h696v-205h-696z" />
    <glyph glyph-name="umacron" unicode="&#x16b;" horiz-adv-x="1208" 
d="M819 0l-41 70q-97 -90 -286 -90q-215 0 -312.5 116.5t-97.5 374.5v553h369v-553q0 -118 34 -171.5t109 -53.5t109 53.5t34 171.5v553h369v-1024h-287zM246 1188v205h696v-205h-696z" />
    <glyph glyph-name="Ubreve" unicode="&#x16c;" horiz-adv-x="1515" 
d="M123 532v902h409v-902q0 -139 53.5 -202.5t172.5 -63.5q118 0 171.5 63t53.5 203v902h410v-902q0 -301 -151 -437t-484 -136t-484 136t-151 437zM1106 1782q0 -129 -82.5 -187.5t-265.5 -58.5t-265.5 58.5t-82.5 187.5h266q0 -43 19.5 -62.5t62.5 -19.5t62.5 19.5
t19.5 62.5h266z" />
    <glyph glyph-name="ubreve" unicode="&#x16d;" horiz-adv-x="1208" 
d="M819 0l-41 70q-97 -90 -286 -90q-215 0 -312.5 116.5t-97.5 374.5v553h369v-553q0 -118 34 -171.5t109 -53.5t109 53.5t34 171.5v553h369v-1024h-287zM676 1434h246q0 -161 -83 -234.5t-266 -73.5t-265.5 73.5t-82.5 234.5h246q0 -65 24 -94t78 -29t78.5 29.5t24.5 93.5z
" />
    <glyph glyph-name="Uring" unicode="&#x16e;" horiz-adv-x="1515" 
d="M123 532v902h409v-902q0 -139 53.5 -202.5t172.5 -63.5q118 0 171.5 63t53.5 203v902h410v-902q0 -301 -151 -437t-484 -136t-484 136t-151 437zM758 1864q139 0 202.5 -53.5t63.5 -172.5q0 -118 -63 -171.5t-203 -53.5t-203 53.5t-63 171.5q0 119 63.5 172.5t202.5 53.5
zM758 1556q43 0 62.5 19.5t19.5 62.5t-19.5 62.5t-62.5 19.5t-62.5 -19.5t-19.5 -62.5t19.5 -62.5t62.5 -19.5z" />
    <glyph glyph-name="uring" unicode="&#x16f;" horiz-adv-x="1208" 
d="M819 0l-41 70q-97 -90 -286 -90q-215 0 -312.5 116.5t-97.5 374.5v553h369v-553q0 -118 34 -171.5t109 -53.5t109 53.5t34 171.5v553h369v-1024h-287zM594 1536q140 0 203 -53.5t63 -171.5q0 -119 -63.5 -172.5t-202.5 -53.5t-202.5 53.5t-63.5 172.5q0 118 63 171.5
t203 53.5zM594 1229q43 0 62.5 19.5t19.5 62.5t-19.5 62.5t-62.5 19.5t-62.5 -19.5t-19.5 -62.5t19.5 -62.5t62.5 -19.5z" />
    <glyph glyph-name="Uhungarumlaut" unicode="&#x170;" horiz-adv-x="1515" 
d="M123 532v902h409v-902q0 -139 53.5 -202.5t172.5 -63.5q118 0 171.5 63t53.5 203v902h410v-902q0 -301 -151 -437t-484 -136t-484 136t-151 437zM348 1536l164 307h348l-246 -307h-266zM819 1536l164 307h348l-246 -307h-266z" />
    <glyph glyph-name="uhungarumlaut" unicode="&#x171;" 
d="M819 0l-41 70q-97 -90 -286 -90q-215 0 -312.5 116.5t-97.5 374.5v553h369v-553q0 -118 34 -171.5t109 -53.5t109 53.5t34 171.5v553h369v-1024h-287zM348 1434h348l-245 -308h-267zM819 1434h348l-245 -308h-267z" />
    <glyph glyph-name="Uogonek" unicode="&#x172;" horiz-adv-x="1515" 
d="M1124 -184h-2v-285q-61 -41 -143 -41q-84 0 -142.5 47t-79 116t-2.5 154t76 156q-25 -2 -73 -2q-333 0 -484 136.5t-151 437.5v901h409v-901q0 -140 54 -203.5t172 -63.5t171.5 63.5t53.5 203.5v901h410v-901q0 -227 -83.5 -358.5t-262.5 -182.5q-41 -43 -60.5 -89
t-6.5 -78t62 -32q38 0 80 21v2z" />
    <glyph glyph-name="uogonek" unicode="&#x173;" horiz-adv-x="1208" 
d="M983 0h-2q-43 -43 -64 -90.5t-8.5 -81t62.5 -33.5q17 0 37.5 5.5t32.5 10.5l12 5v-287q-62 -41 -144 -41q-74 0 -129 36t-79.5 94.5t-24.5 126.5t35 140t100 127l-33 58q-97 -90 -286 -90q-215 0 -312.5 116.5t-97.5 374.5v553h369v-553q0 -118 34 -171.5t109 -53.5
t109 53.5t34 171.5v553h369v-1024h-123z" />
    <glyph glyph-name="Wcircumflex" unicode="&#x174;" horiz-adv-x="2088" 
d="M801 1434h487l170 -1014l201 1014h409l-327 -1434h-533l-178 997l-149 -997h-533l-328 1434h410l201 -1014zM1380 1536h-245l-103 102l-102 -102h-246l164 246h369z" />
    <glyph glyph-name="wcircumflex" unicode="&#x175;" horiz-adv-x="1781" 
d="M309 0h-2l-287 1024h369l160 -717l127 717h450l111 -705l156 705h368l-286 -1024h-451l-133 750l-133 -750h-449zM1219 1126h-226l-123 144l-122 -144h-226l164 308h369z" />
    <glyph glyph-name="Ycircumflex" unicode="&#x176;" horiz-adv-x="1392" 
d="M901 532v-532h-389v532l-512 902h451l256 -512l256 512h430zM1065 1536h-246l-102 102l-103 -102h-245l163 246h369z" />
    <glyph glyph-name="ycircumflex" unicode="&#x177;" horiz-adv-x="1105" 
d="M575 455l183 569h348l-348 -1004q-44 -127 -79.5 -200.5t-79.5 -117t-90.5 -57.5t-119.5 -14h-246v226h144q28 0 42.5 3t34 15.5t35 43t31.5 81.5l8 27l-438 997h348zM922 1126h-226l-123 144l-122 -144h-226l164 308h369z" />
    <glyph glyph-name="Ydieresis" unicode="&#x178;" horiz-adv-x="1392" 
d="M901 532v-532h-389v532l-512 902h451l256 -512l256 512h430zM451 1823q107 0 155.5 -39t48.5 -125t-48.5 -125t-155.5 -39t-156 39t-49 125t49 125t156 39zM983 1823q107 0 156 -39t49 -125t-49 -125t-156 -39t-156 39t-49 125t49 125t156 39z" />
    <glyph glyph-name="Zacute" unicode="&#x179;" horiz-adv-x="1310" 
d="M532 287h717v-287h-1188v246l697 901h-676v287h1147v-246zM471 1536l184 246h349l-246 -246h-287z" />
    <glyph glyph-name="zacute" unicode="&#x17a;" horiz-adv-x="1024" 
d="M471 246h512v-246h-942v205l491 573h-471v246h902v-205zM348 1126l184 308h369l-266 -308h-287z" />
    <glyph glyph-name="Zdotaccent" unicode="&#x17b;" horiz-adv-x="1310" 
d="M532 287h717v-287h-1188v246l697 901h-676v287h1147v-246zM653 1843q107 0 156 -39t49 -125t-48.5 -124.5t-156.5 -38.5q-107 0 -155.5 38.5t-48.5 124.5t48.5 125t155.5 39z" />
    <glyph glyph-name="zdotaccent" unicode="&#x17c;" horiz-adv-x="1024" 
d="M471 246h512v-246h-942v205l491 573h-471v246h902v-205zM510 1536q107 0 156 -43.5t49 -140.5t-49 -141t-156 -44t-156 44t-49 141t49 140.5t156 43.5z" />
    <glyph glyph-name="Zcaron" unicode="&#x17d;" horiz-adv-x="1310" 
d="M532 287h717v-287h-1188v246l697 901h-676v287h1147v-246zM983 1782l-164 -246h-368l-164 246h245l103 -103l102 103h246z" />
    <glyph glyph-name="zcaron" unicode="&#x17e;" horiz-adv-x="1024" 
d="M471 246h512v-246h-942v205l491 573h-471v246h902v-205zM860 1434l-164 -308h-368l-164 308h225l123 -144l123 144h225z" />
    <glyph glyph-name="Aacutering" unicode="&#x1fa;" horiz-adv-x="1433" 
d="M1004 0h-3l-67 266h-453l-71 -266h-410l451 1434h573l410 -1434h-430zM717 1126l-166 -594h313zM856 1843q123 -43 123 -164q0 -91 -70 -137.5t-196 -46.5t-196.5 47t-70.5 137q0 86 63 133t175 52l70 102h225zM713 1618q47 0 74.5 15.5t27.5 45.5t-27.5 46t-74.5 16
t-75 -16t-28 -46t28 -45.5t75 -15.5z" />
    <glyph glyph-name="aacutering" unicode="&#x1fb;" horiz-adv-x="1146" 
d="M41 307q0 183 121.5 265.5t390.5 82.5h143v41q0 75 -32 109.5t-101 34.5q-70 0 -101.5 -29t-31.5 -94h-348q0 172 116.5 249.5t374.5 77.5t375 -92.5t117 -296.5v-655h-287l-43 74q-97 -94 -305 -94q-204 0 -296.5 77.5t-92.5 249.5zM696 451h-102q-99 0 -141.5 -27
t-42.5 -96q0 -57 28 -80t94 -23q86 0 125 44t39 141v41zM774 1436l-2 -2q68 -55 68 -144q0 -93 -72.5 -149t-194.5 -56t-194 56t-72 149t72 149t194 56h31l92 102h267zM573 1229q45 0 63.5 14.5t18.5 46.5t-19 47t-63 15t-62.5 -15t-18.5 -47t18 -46.5t63 -14.5z" />
    <glyph glyph-name="AEacute" unicode="&#x1fc;" horiz-adv-x="1945" 
d="M1905 1147h-594v-266h512v-287h-512v-307h594v-287h-963v266h-410l-122 -266h-410l696 1434h1209v-287zM942 1151l-287 -619h287v619zM963 1536l184 246h348l-246 -246h-286z" />
    <glyph glyph-name="aeacute" unicode="&#x1fd;" horiz-adv-x="1843" 
d="M1802 412h-737q0 -108 44 -156.5t142 -48.5q71 0 110 29.5t54 93.5h348q-32 -183 -154 -265.5t-358 -82.5q-156 0 -254 53t-147 166q-42 -113 -144.5 -166t-275.5 -53q-204 0 -296.5 77.5t-92.5 249.5q0 183 121.5 265.5t390.5 82.5h143v41q0 65 -34 94t-109 29
q-65 0 -94 -24t-29 -78h-348q0 172 116.5 250t374.5 78q244 0 340 -119q107 119 338 119q290 0 420.5 -126.5t130.5 -406.5v-102zM696 414v41h-100q-97 0 -140.5 -29t-43.5 -94q0 -54 29.5 -78.5t93.5 -24.5q87 -1 124 43t37 142zM1253 823q-98 0 -142 -48.5t-44 -156.5h369
q0 108 -43.5 156.5t-139.5 48.5zM760 1124l184 308h369l-266 -308h-287z" />
    <glyph glyph-name="Oslashacute" unicode="&#x1fe;" horiz-adv-x="1638" 
d="M61 717q0 397 180.5 577.5t577.5 180.5q64 0 139 -7l46 129h245l-61 -176q200 -70 294.5 -242t94.5 -462q0 -397 -180.5 -577.5t-577.5 -180.5q-75 0 -139 6l-45 -129h-246l62 176q-200 70 -295 242.5t-95 462.5zM492 717q0 -236 77.5 -343.5t249.5 -107.5t250 107.5
t78 343.5t-78 343t-250 107t-249.5 -107t-77.5 -343zM594 1536l184 246h348l-245 -246h-287z" />
    <glyph glyph-name="oslashacute" unicode="&#x1ff;" 
d="M41 512q0 280 136 406t437 126q35 0 101 -4l43 127h164l-54 -151q165 -46 242.5 -169t77.5 -335q0 -279 -136.5 -405.5t-437.5 -126.5q-38 0 -100 4l-43 -127h-164l51 153q-164 46 -240.5 168t-76.5 334zM614 778q-107 0 -155.5 -63t-48.5 -203t48.5 -203t155.5 -63
t156 63.5t49 202.5t-49 202.5t-156 63.5zM369 1126l184 308h369l-267 -308h-286z" />
    <glyph glyph-name="Scommaaccent" unicode="&#x218;" horiz-adv-x="1351" 
d="M471 1065q0 -36 28 -62.5t75.5 -45t109 -34t129.5 -34t135.5 -41t129 -58.5t109 -82.5t75.5 -117.5t28 -160q0 -247 -145.5 -359t-468.5 -112q-322 0 -468.5 107.5t-146.5 343.5h369q0 -97 58.5 -141t187.5 -44q118 0 171.5 34.5t53.5 109.5q0 46 -28 80.5t-75.5 57
t-109 41t-129.5 36.5t-135.5 39t-129 53t-109 74t-75.5 107t-28 147q0 247 141 359t453 112t453 -107.5t141 -343.5h-369q0 97 -53.5 140.5t-171.5 43.5q-107 0 -156 -34t-49 -109zM676 -82q75 0 109 -43.5t34 -140.5q0 -129 -63.5 -187.5t-202.5 -58.5v123q54 0 78 19.5
t24 62.5q-65 0 -94 24t-29 78q0 64 34.5 93.5t109.5 29.5z" />
    <glyph glyph-name="scommaaccent" unicode="&#x219;" horiz-adv-x="1044" 
d="M389 756q0 -32 34 -52.5t88 -32t119.5 -22.5t131.5 -32t120 -53t88 -92.5t34 -143.5q0 -183 -120 -265.5t-384 -82.5q-241 0 -350 77.5t-109 249.5h348q0 -65 29.5 -94t93.5 -29t93.5 24.5t29.5 78.5q0 37 -33 60t-85 34.5t-115.5 22.5t-127 30.5t-115.5 50t-85 90
t-33 142.5q0 172 112 249.5t359 77.5q236 0 343.5 -73t107.5 -234h-328q0 54 -29.5 78.5t-93.5 24.5q-65 0 -94 -20t-29 -64zM512 -82q75 0 109 -43.5t34 -140.5q0 -129 -63.5 -187.5t-202.5 -58.5v123q54 0 78.5 19.5t24.5 62.5q-65 0 -94 24t-29 78q0 65 34 94t109 29z
" />
    <glyph glyph-name="uni021A" unicode="&#x21a;" horiz-adv-x="1310" 
d="M1270 1434v-308h-410v-1126h-409v1126h-410v308h1229zM655 -82q75 0 109.5 -43.5t34.5 -140.5q0 -129 -63.5 -187.5t-203.5 -58.5v123q54 0 78.5 19.5t24.5 62.5q-65 0 -94 24t-29 78q0 65 34 94t109 29z" />
    <glyph glyph-name="uni021B" unicode="&#x21b;" horiz-adv-x="921" 
d="M573 369q0 -46 28.5 -74.5t74.5 -28.5h184v-266h-328q-154 0 -240.5 87t-86.5 241v471h-164v225h164v266h368v-266h287v-225h-287v-430zM492 -82q75 0 109 -43.5t34 -140.5q0 -129 -63.5 -187.5t-202.5 -58.5v123q54 0 78 19.5t24 62.5q-65 0 -94 24t-29 78
q0 64 34.5 93.5t109.5 29.5z" />
    <glyph glyph-name="circumflex" unicode="&#x2c6;" horiz-adv-x="778" 
d="M573 1434l164 -308h-225l-123 144l-123 -144h-225l164 308h368z" />
    <glyph glyph-name="caron" unicode="&#x2c7;" horiz-adv-x="778" 
d="M737 1434l-164 -308h-368l-164 308h225l123 -144l123 144h225z" />
    <glyph glyph-name="breve" unicode="&#x2d8;" horiz-adv-x="778" 
d="M492 1434h245q0 -161 -82.5 -234.5t-265.5 -73.5t-265.5 73.5t-82.5 234.5h246q0 -65 24 -94t78 -29t78.5 29.5t24.5 93.5z" />
    <glyph glyph-name="dotaccent" unicode="&#x2d9;" horiz-adv-x="491" 
d="M246 1536q107 0 156 -43.5t49 -140.5t-49 -141t-156 -44t-156 44t-49 141t49 140.5t156 43.5z" />
    <glyph glyph-name="ring" unicode="&#x2da;" horiz-adv-x="614" 
d="M307 1495q140 0 203 -53.5t63 -171.5q0 -119 -63.5 -172.5t-202.5 -53.5t-202.5 53.5t-63.5 172.5q0 118 63 171.5t203 53.5zM307 1188q43 0 62.5 19.5t19.5 62.5t-19.5 62.5t-62.5 19.5t-62.5 -19.5t-19.5 -62.5t19.5 -62.5t62.5 -19.5z" />
    <glyph glyph-name="ogonek" unicode="&#x2db;" horiz-adv-x="458" 
d="M418 -184v-287q-62 -41 -144 -41q-64 0 -114.5 28.5t-79 74t-36 105t6.5 120t56 121t106 104.5h184q-79 -52 -114 -129q-33 -74 5 -104q17 -13 48 -13q17 0 37.5 5.5t32.5 10.5z" />
    <glyph glyph-name="tilde" unicode="&#x2dc;" horiz-adv-x="778" 
d="M41 1229q0 108 66.5 187t158.5 79q51 0 91.5 -14.5t64.5 -35.5t42.5 -42.5t35 -36t32.5 -14.5t28.5 16t12.5 45h164q0 -108 -66.5 -187t-158.5 -79q-51 0 -91.5 14.5t-64.5 35.5t-42.5 42.5t-35 36t-32.5 14.5t-28.5 -16t-12.5 -45h-164z" />
    <glyph glyph-name="hungarumlaut" unicode="&#x2dd;" horiz-adv-x="1064" 
d="M41 1126l164 308h348l-246 -308h-266zM512 1126l164 308h348l-246 -308h-266z" />
    <glyph glyph-name="Wgrave" unicode="&#x1e80;" horiz-adv-x="2088" 
d="M801 1434h487l170 -1014l201 1014h409l-327 -1434h-533l-178 997l-149 -997h-533l-328 1434h410l201 -1014zM940 1782l205 -246h-266l-267 246h328z" />
    <glyph glyph-name="wgrave" unicode="&#x1e81;" horiz-adv-x="1781" 
d="M309 0h-2l-287 1024h369l160 -717l127 717h450l111 -705l156 705h368l-286 -1024h-451l-133 750l-133 -750h-449zM1034 1126h-286l-267 308h369z" />
    <glyph glyph-name="Wacute" unicode="&#x1e82;" horiz-adv-x="2088" 
d="M801 1434h487l170 -1014l201 1014h409l-327 -1434h-533l-178 997l-149 -997h-533l-328 1434h410l201 -1014zM868 1536l185 246h348l-246 -246h-287z" />
    <glyph glyph-name="wacute" unicode="&#x1e83;" horiz-adv-x="1781" 
d="M309 0h-2l-287 1024h369l160 -717l127 717h450l111 -705l156 705h368l-286 -1024h-451l-133 750l-133 -750h-449zM686 1126l184 308h369l-266 -308h-287z" />
    <glyph glyph-name="Wdieresis" unicode="&#x1e84;" horiz-adv-x="2088" 
d="M801 1434h487l170 -1014l201 1014h409l-327 -1434h-533l-178 997l-149 -997h-533l-328 1434h410l201 -1014zM766 1823q107 0 156 -39t49 -125t-49 -125t-156 -39t-156 39t-49 125t49 125t156 39zM1298 1823q107 0 156 -39t49 -125t-49 -125t-156 -39t-155.5 39t-48.5 125
t48.5 125t155.5 39z" />
    <glyph glyph-name="wdieresis" unicode="&#x1e85;" horiz-adv-x="1781" 
d="M309 0h-2l-287 1024h369l160 -717l127 717h450l111 -705l156 705h368l-286 -1024h-451l-133 750l-133 -750h-449zM625 1536q107 0 155.5 -46.5t48.5 -148.5q0 -101 -48.5 -147.5t-155.5 -46.5q-108 0 -156.5 46t-48.5 148q0 101 49 148t156 47zM1116 1536q107 0 156 -47
t49 -148t-49 -147.5t-156 -46.5q-108 0 -156.5 46t-48.5 148q0 101 49 148t156 47z" />
    <glyph glyph-name="uni1E9E" unicode="&#x1e9e;" horiz-adv-x="1392" 
d="M696 1475q299 0 436.5 -94.5t137.5 -295.5q0 -104 -43.5 -170t-141.5 -116q129 -53 187.5 -140.5t58.5 -228.5q0 -226 -107 -328t-343 -102q-55 0 -111.5 10t-85.5 20l-29 11v246q62 -21 123 -21q97 0 141 44t44 141q0 107 -63.5 155.5t-203.5 48.5v246q119 0 172.5 34
t53.5 109q0 86 -49 125t-156 39q-225 0 -225 -204v-1004h-369v963q0 512 573 512z" />
    <glyph glyph-name="Ygrave" unicode="&#x1ef2;" horiz-adv-x="1392" 
d="M901 532v-532h-389v532l-512 902h451l256 -512l256 512h430zM881 1536h-267l-266 246h328z" />
    <glyph glyph-name="ygrave" unicode="&#x1ef3;" horiz-adv-x="1105" 
d="M575 455l183 569h348l-348 -1004q-44 -127 -79.5 -200.5t-79.5 -117t-90.5 -57.5t-119.5 -14h-246v226h144q28 0 42.5 3t34 15.5t35 43t31.5 81.5l8 27l-438 997h348zM737 1126h-286l-267 308h369z" />
    <glyph glyph-name="endash" unicode="&#x2013;" horiz-adv-x="1146" 
d="M1106 676v-266h-1065v266h1065z" />
    <glyph glyph-name="emdash" unicode="&#x2014;" horiz-adv-x="1597" 
d="M1556 676v-266h-1515v266h1515z" />
    <glyph glyph-name="quoteleft" unicode="&#x2018;" horiz-adv-x="491" 
d="M266 676q-118 0 -171.5 73t-53.5 234q0 236 92.5 343.5t296.5 107.5v-164q-86 0 -125 -49t-39 -156q97 0 141 -46t44 -149q0 -101 -44 -147.5t-141 -46.5z" />
    <glyph glyph-name="quoteright" unicode="&#x2019;" horiz-adv-x="491" 
d="M225 1454q119 0 172.5 -73t53.5 -234q0 -236 -93 -343.5t-297 -107.5v164q86 0 125 49t39 156q-97 0 -140.5 46t-43.5 149q0 101 43.5 147.5t140.5 46.5z" />
    <glyph glyph-name="quotesinglbase" unicode="&#x201a;" horiz-adv-x="491" 
d="M225 369q118 0 172 -73.5t54 -234.5q0 -236 -93 -343t-297 -107v164q86 0 125 49t39 156q-97 0 -140.5 45.5t-43.5 148.5q0 102 44 148.5t140 46.5z" />
    <glyph glyph-name="quotedblleft" unicode="&#x201c;" horiz-adv-x="1024" 
d="M266 676q-118 0 -171.5 73t-53.5 234q0 236 92.5 343.5t296.5 107.5v-164q-86 0 -125 -49t-39 -156q97 0 141 -46t44 -149q0 -101 -44 -147.5t-141 -46.5zM799 676q-119 0 -172.5 73t-53.5 234q0 236 93 343.5t297 107.5v-164q-86 0 -125 -49t-39 -156q97 0 140.5 -46
t43.5 -149q0 -101 -43.5 -147.5t-140.5 -46.5z" />
    <glyph glyph-name="quotedblright" unicode="&#x201d;" horiz-adv-x="1024" 
d="M225 1454q119 0 172.5 -73t53.5 -234q0 -236 -93 -343.5t-297 -107.5v164q86 0 125 49t39 156q-97 0 -140.5 46t-43.5 149q0 101 43.5 147.5t140.5 46.5zM758 1454q118 0 171.5 -73t53.5 -234q0 -236 -92.5 -343.5t-296.5 -107.5v164q86 0 125 49t39 156q-97 0 -141 46
t-44 149q0 101 44 147.5t141 46.5z" />
    <glyph glyph-name="quotedblbase" unicode="&#x201e;" horiz-adv-x="1024" 
d="M225 369q118 0 172 -73.5t54 -234.5q0 -236 -93 -343t-297 -107v164q86 0 125 49t39 156q-97 0 -140.5 45.5t-43.5 148.5q0 102 44 148.5t140 46.5zM758 369q118 0 171.5 -73.5t53.5 -234.5q0 -236 -92.5 -343t-296.5 -107v164q86 0 125 49t39 156q-97 0 -141 46t-44 148
q0 101 44 148t141 47z" />
    <glyph glyph-name="ellipsis" unicode="&#x2026;" horiz-adv-x="1759" 
d="M246 369q107 0 156 -47t49 -148t-49 -147.5t-156 -46.5q-108 0 -156.5 46t-48.5 148q0 101 49 148t156 47zM879 369q107 0 155.5 -46.5t48.5 -148.5q0 -101 -48.5 -147.5t-155.5 -46.5q-108 0 -156.5 46t-48.5 148q0 101 49 148t156 47zM1513 369q107 0 156 -47t49 -148
t-49 -147.5t-156 -46.5t-155.5 45.5t-48.5 148.5q0 102 48.5 148.5t155.5 46.5z" />
    <glyph glyph-name="perthousand" unicode="&#x2030;" horiz-adv-x="2682" 
d="M1434 799q193 0 280.5 -97.5t87.5 -312.5t-87 -312t-281 -97t-281.5 97t-87.5 312t87.5 312.5t281.5 97.5zM1434 184q54 0 78 48.5t24 156.5t-24 156.5t-78 48.5t-78.5 -49t-24.5 -156t24.5 -156t78.5 -49zM2273 799q194 0 281.5 -97.5t87.5 -312.5t-87.5 -312
t-281.5 -97t-281 97t-87 312t87.5 312.5t280.5 97.5zM2273 184q54 0 78.5 49t24.5 156t-24.5 156t-78.5 49t-78 -48.5t-24 -156.5t24 -156.5t78 -48.5zM410 1454q193 0 280.5 -97.5t87.5 -312.5t-87 -312t-281 -97t-281.5 97t-87.5 312t87.5 312.5t281.5 97.5zM410 840
q54 0 78 48.5t24 155.5q0 108 -24 156.5t-78 48.5t-78.5 -49t-24.5 -156t24.5 -155.5t78.5 -48.5zM635 -61h-328l901 1556h328z" />
    <glyph glyph-name="guilsinglleft" unicode="&#x2039;" horiz-adv-x="696" 
d="M307 922h348l-245 -390l245 -409h-348l-266 409z" />
    <glyph glyph-name="guilsinglright" unicode="&#x203a;" horiz-adv-x="696" 
d="M389 922l266 -390l-266 -409h-348l246 409l-246 390h348z" />
    <glyph glyph-name="lira" unicode="&#x20a4;" horiz-adv-x="1411" 
d="M1329 287v-287h-1227v328q108 42 144 143h-144v184h164v62h-164v184h164v123q-2 236 120 343.5t392 107.5q258 0 375 -107.5t117 -343.5h-348q0 107 -34.5 156t-109.5 49t-109 -49t-34 -156v-123h450v-184h-450v-62h450v-184h-471q-42 -127 -186 -184h901z" />
    <glyph glyph-name="Euro" unicode="&#x20ac;" horiz-adv-x="1699" 
d="M1229 492v-5h409q-60 -280 -225 -406t-471 -126q-338 0 -516.5 127.5t-224.5 404.5h-181v185h164v43v43h-164v184h181q46 277 224.5 405t516.5 128q326 0 491 -126.5t205 -406.5h-409q-23 118 -91 171.5t-196 53.5q-124 0 -197 -54.5t-104 -170.5h426v-184h-451v-41v-41
h369v-184h-344q31 -117 104 -171.5t197 -54.5q127 0 195.5 53.5t91.5 172.5z" />
    <glyph glyph-name="trademark" unicode="&#x2122;" horiz-adv-x="2600" 
d="M963 1434v-287h-287v-737h-348v737h-287v287h922zM1434 1001v-591h-349v1024h471l236 -654l236 654h450v-1024h-348v591l-225 -591h-246z" />
    <glyph glyph-name="minus" unicode="&#x2212;" horiz-adv-x="798" 
d="M737 410h-676v266h676v-266z" />
    <glyph glyph-name="approxequal" unicode="&#x2248;" horiz-adv-x="1351" 
d="M61 225v246q66 66 138 96t140.5 27t140 -23t141.5 -52.5t139.5 -65t138.5 -55.5t134 -29t131.5 18.5t125.5 83.5v-246q-66 -66 -138 -96t-140.5 -27t-140 23t-141.5 52.5t-139.5 65t-138.5 55.5t-134 29t-131.5 -18.5t-125.5 -83.5zM61 635v246q66 66 138 96t140.5 27
t140 -23t141.5 -52.5t139.5 -65t138.5 -55.5t134 -29t131.5 18.5t125.5 83.5v-246q-66 -66 -138 -96t-140.5 -27t-140 23t-141.5 52.5t-139.5 65t-138.5 55.5t-134 29t-131.5 -18.5t-125.5 -83.5z" />
    <glyph glyph-name="notequal" unicode="&#x2260;" horiz-adv-x="1310" 
d="M369 0l73 205h-401v266h498l51 143h-549v267h645l51 143h205l-51 -143h379v-267h-475l-52 -143h527v-266h-623l-74 -205h-204z" />
    <glyph glyph-name="lessequal" unicode="&#x2264;" horiz-adv-x="901" 
d="M41 0v287h819v-287h-819zM41 1106l819 328v-328l-461 -184l461 -185v-327l-819 327v369z" />
    <glyph glyph-name="greaterequal" unicode="&#x2265;" horiz-adv-x="901" 
d="M41 0v287h819v-287h-819zM41 1434l819 -328v-369l-819 -327v327l461 185l-461 184v328z" />
    <glyph glyph-name="uniE132" unicode="&#xe132;" horiz-adv-x="1167" 
d="M471 0h-369v1024h369v-1024zM614 -102q46 0 74.5 28t28.5 74v1024h368v-1065q0 -154 -86.5 -241t-240.5 -87h-328v267h184zM102 1126l185 308h368l-266 -308h-287zM717 1126l184 308h369l-266 -308h-287z" />
    <glyph glyph-name="uniE133" unicode="&#xe133;" horiz-adv-x="1884" 
d="M123 1434h409v-1434h-409v1434zM717 430v82h389v-82q0 -86 29 -125t94 -39t94 39t29 125v1004h409v-1004q0 -239 -127.5 -355t-404.5 -116q-266 0 -389 116t-123 355zM164 1536l184 246h348l-245 -246h-287zM1393 1536l184 246h348l-246 -246h-286z" />
    <glyph glyph-name="a.alt1" horiz-adv-x="1251" 
d="M815 942l47 82h287v-1024h-287l-47 82q-108 -102 -323 -102q-236 0 -343.5 126.5t-107.5 405.5t107.5 405.5t343.5 126.5q215 0 323 -102zM596 246q97 0 140.5 63t43.5 203t-43.5 203t-140.5 63t-140.5 -63t-43.5 -203t43.5 -203t140.5 -63z" />
    <glyph glyph-name="aacute.alt1" horiz-adv-x="1251" 
d="M815 942l47 82h287v-1024h-287l-47 82q-108 -102 -323 -102q-236 0 -343.5 126.5t-107.5 405.5t107.5 405.5t343.5 126.5q215 0 323 -102zM596 246q97 0 140.5 63t43.5 203t-43.5 203t-140.5 63t-140.5 -63t-43.5 -203t43.5 -203t140.5 -63zM432 1126l184 308h369
l-266 -308h-287z" />
    <glyph glyph-name="aacutering.alt1" horiz-adv-x="1251" 
d="M815 942l47 82h287v-1024h-287l-47 82q-108 -102 -323 -102q-236 0 -343.5 126.5t-107.5 405.5t107.5 405.5t343.5 126.5q215 0 323 -102zM596 246q97 0 140.5 63t43.5 203t-43.5 203t-140.5 63t-140.5 -63t-43.5 -203t43.5 -203t140.5 -63zM637 1495l-2 -2h31l94 102
h266l-190 -161q67 -55 67 -144q0 -93 -72 -149t-194 -56t-194 56t-72 149t72 149t194 56zM635 1227q45 0 63.5 14.5t18.5 46.5t-19 47t-63 15t-63 -15t-19 -47t18.5 -46.5t63.5 -14.5z" />
    <glyph glyph-name="abreve.alt1" horiz-adv-x="1251" 
d="M815 942l47 82h287v-1024h-287l-47 82q-108 -102 -323 -102q-236 0 -343.5 126.5t-107.5 405.5t107.5 405.5t343.5 126.5q215 0 323 -102zM596 246q97 0 140.5 63t43.5 203t-43.5 203t-140.5 63t-140.5 -63t-43.5 -203t43.5 -203t140.5 -63zM739 1434h246
q0 -161 -82.5 -234.5t-265.5 -73.5t-265.5 73.5t-82.5 234.5h246q0 -65 24 -94t78 -29t78 29t24 94z" />
    <glyph glyph-name="acircumflex.alt1" horiz-adv-x="1251" 
d="M815 942l47 82h287v-1024h-287l-47 82q-108 -102 -323 -102q-236 0 -343.5 126.5t-107.5 405.5t107.5 405.5t343.5 126.5q215 0 323 -102zM596 246q97 0 140.5 63t43.5 203t-43.5 203t-140.5 63t-140.5 -63t-43.5 -203t43.5 -203t140.5 -63zM821 1434l164 -308h-225
l-123 144l-123 -144h-225l164 308h368z" />
    <glyph glyph-name="acute.case" horiz-adv-x="614" 
d="M41 1126l184 246h348l-245 -246h-287z" />
    <glyph glyph-name="adieresis.alt1" horiz-adv-x="1148" 
d="M815 942l47 82h287v-1024h-287l-47 82q-108 -102 -323 -102q-236 0 -343.5 126.5t-107.5 405.5t107.5 405.5t343.5 126.5q215 0 323 -102zM596 246q97 0 140.5 63t43.5 203t-43.5 203t-140.5 63t-140.5 -63t-43.5 -203t43.5 -203t140.5 -63zM391 1536q107 0 156 -47
t49 -148t-49 -147.5t-156 -46.5q-108 0 -156.5 46t-48.5 148q0 101 49 148t156 47zM883 1536q107 0 155.5 -46.5t48.5 -148.5q0 -101 -48.5 -147.5t-155.5 -46.5q-108 0 -156.5 46t-48.5 148q0 101 49 148t156 47z" />
    <glyph glyph-name="agrave.alt1" horiz-adv-x="1251" 
d="M815 942l47 82h287v-1024h-287l-47 82q-108 -102 -323 -102q-236 0 -343.5 126.5t-107.5 405.5t107.5 405.5t343.5 126.5q215 0 323 -102zM596 246q97 0 140.5 63t43.5 203t-43.5 203t-140.5 63t-140.5 -63t-43.5 -203t43.5 -203t140.5 -63zM555 1434l184 -308h-286
l-267 308h369z" />
    <glyph glyph-name="amacron.alt1" horiz-adv-x="1251" 
d="M815 942l47 82h287v-1024h-287l-47 82q-108 -102 -323 -102q-236 0 -343.5 126.5t-107.5 405.5t107.5 405.5t343.5 126.5q215 0 323 -102zM596 246q97 0 140.5 63t43.5 203t-43.5 203t-140.5 63t-140.5 -63t-43.5 -203t43.5 -203t140.5 -63zM287 1188v205h696v-205h-696z
" />
    <glyph glyph-name="aogonek.alt1" horiz-adv-x="1251" 
d="M1100 -184v-2h-4v-285q-62 -41 -144 -41q-74 0 -129 36t-79.5 94.5t-24.5 126.5t35 140t100 127l-39 70q-108 -102 -323 -102q-236 0 -343.5 126.5t-107.5 405.5t107.5 405.5t343.5 126.5q215 0 323 -102l47 82h287v-1024h-123q-43 -43 -64 -90.5t-8.5 -81t62.5 -33.5
q23 0 80 19v2h4zM596 244q97 0 140.5 63t43.5 203t-43.5 203t-140.5 63t-140.5 -63t-43.5 -203t43.5 -203t140.5 -63z" />
    <glyph glyph-name="aring.alt1" horiz-adv-x="1251" 
d="M815 942l47 82h287v-1024h-287l-47 82q-108 -102 -323 -102q-236 0 -343.5 126.5t-107.5 405.5t107.5 405.5t343.5 126.5q215 0 323 -102zM596 246q97 0 140.5 63t43.5 203t-43.5 203t-140.5 63t-140.5 -63t-43.5 -203t43.5 -203t140.5 -63zM637 1536q140 0 203 -53.5
t63 -171.5q0 -119 -63.5 -172.5t-202.5 -53.5t-202.5 53.5t-63.5 172.5q0 118 63 171.5t203 53.5zM637 1229q43 0 62.5 19.5t19.5 62.5t-19.5 62.5t-62.5 19.5t-62.5 -19.5t-19.5 -62.5t19.5 -62.5t62.5 -19.5z" />
    <glyph glyph-name="atilde.alt1" horiz-adv-x="1251" 
d="M815 942l47 82h287v-1024h-287l-47 82q-108 -102 -323 -102q-236 0 -343.5 126.5t-107.5 405.5t107.5 405.5t343.5 126.5q215 0 323 -102zM596 246q97 0 140.5 63t43.5 203t-43.5 203t-140.5 63t-140.5 -63t-43.5 -203t43.5 -203t140.5 -63zM289 1188q0 108 66.5 187
t158.5 79q51 0 91.5 -14.5t64.5 -36t42.5 -42.5t35 -35.5t32.5 -14.5t28.5 16t12.5 45h164q0 -108 -66.5 -187t-158.5 -79q-51 0 -91.5 14.5t-64.5 36t-42.5 42.5t-35 35.5t-32.5 14.5t-28.5 -16t-12.5 -45h-164z" />
    <glyph glyph-name="breve.case" horiz-adv-x="778" 
d="M737 1372q0 -129 -82.5 -187.5t-265.5 -58.5t-265.5 58.5t-82.5 187.5h266q0 -43 19.5 -62.5t62.5 -19.5t62.5 19.5t19.5 62.5h266z" />
    <glyph glyph-name="caron.case" horiz-adv-x="778" 
d="M737 1372l-164 -246h-368l-164 246h246l102 -102l103 102h245z" />
    <glyph glyph-name="circumflex.case" horiz-adv-x="778" 
d="M737 1126h-245l-103 103l-102 -103h-246l164 246h368z" />
    <glyph glyph-name="commaaccent" horiz-adv-x="368" 
d="M184 -82q75 0 109.5 -43.5t34.5 -140.5q0 -129 -63.5 -187.5t-203.5 -58.5v123q54 0 78.5 19.5t24.5 62.5q-65 0 -94 24t-29 78q0 65 34 94t109 29z" />
    <glyph glyph-name="dieresis.case" horiz-adv-x="1021" 
d="M246 1475q107 0 156 -39t49 -125t-49 -125t-156 -39t-156 39t-49 125t49 125t156 39zM776 1475q107 0 156 -39t49 -125t-49 -125t-156 -39t-156 39t-49 125t49 125t156 39z" />
    <glyph glyph-name="dotaccent.case" horiz-adv-x="491" 
d="M246 1454q107 0 156 -39t49 -125t-49 -125t-156 -39t-156 39t-49 125t49 125t156 39z" />
    <glyph glyph-name="grave.case" horiz-adv-x="614" 
d="M369 1372l204 -246h-266l-266 246h328z" />
    <glyph glyph-name="hungarumlaut.case" horiz-adv-x="1024" 
d="M41 1126l164 246h327l-225 -246h-266zM492 1126l163 246h328l-225 -246h-266z" />
    <glyph glyph-name="tilde.case" horiz-adv-x="778" 
d="M41 1188q0 104 64.5 164.5t160.5 60.5q62 0 110.5 -13t71.5 -28t51 -28t54 -13q15 0 28 13t13 28h143q0 -104 -64.5 -164.5t-160.5 -60.5q-62 0 -110.5 13t-71.5 28t-51 28t-54 13q-15 0 -28 -13t-13 -28h-143z" />
    </font>
</defs>
</svg>
